<svg width="24" height="24" fill="none" xmlns="http://www.w3.org/2000/svg" class="MuiSvgIcon-root MuiSvgIcon-fontSizeMedium mui-10g48rb" focusable="false" aria-hidden="true" viewBox="0 0 24 24"><path d="M9.079 9.137c1.297 0 2.385-1.088 2.385-2.377A2.406 2.406 0 009.08 4.374 2.4 2.4 0 006.693 6.76c0 1.28 1.072 2.377 2.386 2.377zm5.85 0c1.306 0 2.386-1.088 2.386-2.377a2.4 2.4 0 00-2.385-2.386 2.4 2.4 0 00-2.386 2.386c0 1.289 1.08 2.377 2.386 2.377zm-8.78 5.248A2.406 2.406 0 008.535 12a2.4 2.4 0 00-2.386-2.386A2.406 2.406 0 003.763 12c0 1.289 1.072 2.386 2.386 2.386zm5.851 0A2.406 2.406 0 0014.386 12 2.4 2.4 0 0012 9.614c-1.297 0-2.377 1.08-2.377 2.386 0 1.297 1.08 2.386 2.377 2.386zm5.86 0c1.297 0 2.377-1.088 2.377-2.385 0-1.306-1.08-2.386-2.378-2.386A2.4 2.4 0 0015.474 12a2.406 2.406 0 002.385 2.386zm-8.781 5.24a2.406 2.406 0 002.385-2.385c0-1.297-1.088-2.377-2.385-2.377-1.306 0-2.386 1.08-2.386 2.377 0 1.289 1.072 2.386 2.386 2.386zm5.85 0a2.4 2.4 0 002.386-2.385c0-1.297-1.08-2.377-2.385-2.377-1.306 0-2.386 1.08-2.386 2.377a2.4 2.4 0 002.386 2.386z" fill="currentColor"></path></svg>