<svg width="24" height="24" viewBox="0 0 24 24" fill="none" xmlns="http://www.w3.org/2000/svg">
<path d="M1.842 15.65C1.842 17.876 3.834 19.542 6.27 19.542C8.706 19.542 10.69 17.876 10.69 15.649V13.666C11.1118 13.5158 11.5563 13.4393 12.004 13.44C12.524 13.44 12.958 13.49 13.31 13.616V15.658C13.31 17.884 15.294 19.542 17.73 19.542C20.165 19.542 22.158 17.884 22.158 15.658C22.158 15.08 22.065 14.528 21.756 13.791L18.474 6.141C18.023 5.078 17.068 4.458 15.854 4.458C14.314 4.458 13.31 5.446 13.31 6.919V7.664C12.8838 7.5525 12.4445 7.49901 12.004 7.505C11.5589 7.50515 11.1163 7.57017 10.69 7.698V6.919C10.69 5.446 9.685 4.459 8.145 4.459C6.932 4.459 5.977 5.078 5.525 6.132L2.245 13.792C1.935 14.528 1.842 15.081 1.842 15.65ZM10.69 11.247V10.125C11.1 9.991 11.552 9.925 12.004 9.925C12.481 9.925 12.916 9.983 13.31 10.083V11.196C12.958 11.071 12.523 11.021 12.004 11.021C11.535 11.021 11.075 11.104 10.69 11.247ZM3.173 15.649C3.173 14.093 4.513 13.038 6.27 13.038C8.028 13.038 9.41 14.093 9.41 15.649C9.41 17.215 8.028 18.269 6.27 18.269C4.512 18.269 3.173 17.215 3.173 15.649ZM14.591 15.658C14.591 14.093 15.971 13.038 17.73 13.038C19.487 13.038 20.827 14.093 20.827 15.658C20.827 17.215 19.487 18.27 17.73 18.27C15.972 18.27 14.591 17.215 14.591 15.658Z" fill="white"/>
</svg>
