<svg width="24" height="24" fill="none" xmlns="http://www.w3.org/2000/svg"
    class="MuiSvgIcon-root MuiSvgIcon-fontSizeMedium mui-10g48rb" focusable="false" aria-hidden="true"
    viewBox="0 0 24 24">
    <path
        d="M8.388 15.696c0 .426.276.686.72.686h1.716c.435 0 .712-.26.712-.686v-9.92c0-.418-.277-.677-.712-.677H9.108c-.444 0-.72.259-.72.678v9.919zm4.068 0c0 .426.277.686.72.686h1.708c.443 0 .72-.26.72-.686V7.509c0-.427-.277-.686-.72-.686h-1.708c-.444 0-.72.26-.72.686v8.187zm-8.128 0c0 .426.268.686.712.686h1.716c.435 0 .72-.26.72-.686V9.208c0-.426-.285-.686-.72-.686H5.04c-.444 0-.712.26-.712.686v6.488zm12.196 0c0 .426.277.686.72.686h1.708c.443 0 .72-.26.72-.686v-4.847c0-.418-.277-.686-.72-.686h-1.708c-.443 0-.72.268-.72.686v4.847zM3.642 18.224c0 .376.31.677.686.677h15.344a.682.682 0 100-1.364H4.328a.684.684 0 00-.686.687z"
        fill="#1f4564"></path>
</svg>