<svg width="24" height="24" fill="none" xmlns="http://www.w3.org/2000/svg" class="MuiSvgIcon-root MuiSvgIcon-fontSizeMedium mui-15o2vwz" focusable="false" aria-hidden="true" viewBox="0 0 24 24"><path d="M6.92 5.25h5.27c3.62 0 5.54 1.92 5.54 5.54v3.87c1.7-.42 2.5-1.67 2.5-3.87v-4c0-2.79-1.25-4.04-4.04-4.04h-6.4c-2.2 0-2.44.8-2.87 2.5z" fill="#FDD835"></path><path d="M5.8 13.19c0 .55.44 1 1 1 .55 0 1-.45 1-1s-.45-1-1-1-1 .45-1 1zM9.99 14.19c-.56 0-1-.45-1-1s.45-1 1-1 1 .45 1 1-.44 1-1 1zM12.19 13.19c0 .55.44 1 1 1 .55 0 1-.45 1-1s-.45-1-1-1-1 .45-1 1z" fill="currentColor"></path><path fill-rule="evenodd" clip-rule="evenodd" d="M22.49 6.54c0-3.62-1.92-5.54-5.54-5.54h-6.4C7.026 1 5.674 2.8 5.222 4.654l-.067.309-.028.154C3.12 5.458 1 6.717 1 10.54v4c0 4.234 1.788 5.364 4.729 5.52l.399.015c.135.003.272.005.412.005h.37c.01 0 .026.007.04.013.016.006.03.012.03.007l1.2 1.6c.39.53.96.83 1.56.83.6 0 1.17-.3 1.56-.83l1.24-1.62h.4c3.831 0 5.087-2.128 5.418-4.116 2.008-.34 4.132-1.597 4.132-5.424v-4zM6.55 6.5h6.39c2.79 0 4.04 1.25 4.04 4.04v4c0 .23-.01.45-.04.69l-.022.217c-.251 2.13-1.52 3.133-3.978 3.133h-.4c-.49 0-.95.23-1.24.62l-1.2 1.6c-.22.3-.5.3-.72 0l-1.2-1.61c-.28-.36-.79-.61-1.24-.61h-.4l-.413-.004-.387-.015a9.624 9.624 0 01-.362-.025l-.338-.038c-1.845-.253-2.54-1.181-2.54-3.958v-4c0-2.458.993-3.727 3.16-3.987l.209-.022.234-.018c.144-.009.293-.013.447-.013zm3.99-4h6.4c2.79 0 4.04 1.25 4.04 4.04v4c0 2.115-.74 3.352-2.308 3.818l-.192.052v-3.87c0-3.62-1.92-5.54-5.54-5.54H6.67c.43-1.7 1.67-2.5 3.87-2.5z" fill="currentColor"></path></svg>