<svg width="24" height="24" fill="none" xmlns="http://www.w3.org/2000/svg" class="MuiSvgIcon-root MuiSvgIcon-fontSizeMedium mui-15o2vwz" focusable="false" aria-hidden="true" viewBox="0 0 24 24"><path d="M13 6.5v-4a4.52 4.52 0 013.345 1.48l2.646 2.91A3.88 3.88 0 0120 9.5h-4a3 3 0 01-3-3z" fill="#FDD835"></path><path fill-rule="evenodd" clip-rule="evenodd" d="M4.487 3.635c-.64.69-.987 1.73-.987 3.115v10c0 1.385.346 2.425.987 3.115C5.118 20.545 6.143 21 7.75 21h8c1.607 0 2.631-.455 3.263-1.135.64-.69.987-1.73.987-3.115V8.407c0-.857-.346-1.692-.947-2.352-.21-.23-.404-.448-.591-.657-.66-.74-1.232-1.38-2.136-2.184-.526-.468-1.232-.714-1.98-.714H7.75c-1.607 0-2.632.455-3.263 1.135zm-1.1-1.02C4.383 1.545 5.858 1 7.75 1h6.597c1.07 0 2.144.353 2.976 1.093.974.867 1.612 1.582 2.282 2.333.18.202.364.408.557.62.828.908 1.338 2.096 1.338 3.36v8.344c0 1.615-.404 3.075-1.388 4.135-.993 1.07-2.469 1.615-4.362 1.615h-8c-1.893 0-3.368-.545-4.362-1.615C2.404 19.825 2 18.365 2 16.75v-10c0-1.615.404-3.075 1.388-4.135z" fill="currentColor"></path><path fill-rule="evenodd" clip-rule="evenodd" d="M14.25 1.5a.75.75 0 01.75.75v4c0 .686.564 1.25 1.25 1.25h4a.75.75 0 010 1.5h-4a2.756 2.756 0 01-2.75-2.75v-4a.75.75 0 01.75-.75zM10.28 11.22a.75.75 0 010 1.06l-2.47 2.47 2.47 2.47a.75.75 0 11-1.06 1.06l-3-3a.75.75 0 010-1.06l3-3a.75.75 0 011.06 0zM13.22 11.22a.75.75 0 011.06 0l3 3a.75.75 0 010 1.06l-3 3a.75.75 0 11-1.06-1.06l2.47-2.47-2.47-2.47a.75.75 0 010-1.06z" fill="currentColor"></path></svg>