<svg width="24" height="24" fill="none" xmlns="http://www.w3.org/2000/svg" class="MuiSvgIcon-root MuiSvgIcon-fontSizeMedium mui-1etrg7" focusable="false" aria-hidden="true" viewBox="0 0 24 24"><path d="M10.5 3l-3 5h7L11 20.5 21 8l-4-5h-6.5z" fill="#FDD835"></path><path d="M23 8a.692.692 0 00-.131-.403l-3.91-5.333A.644.644 0 0018.445 2H5.555a.644.644 0 00-.514.264l-3.91 5.333a.684.684 0 00.011.82l10.356 13.334A.64.64 0 0012 22a.64.64 0 00.502-.25L22.858 8.419A.692.692 0 0023 8zM5.442 3.924l1.648 3.41H2.942l2.5-3.41zM15 8.667L12 19.013 9 8.667h6zM9.42 7.333L12 3.778l2.578 3.555H9.422zm3.868-4h4.114l-1.646 3.404-2.468-3.404zM8.243 6.737L6.598 3.333h4.113L8.243 6.737zm-.59 1.93l2.78 9.585L2.99 8.667h4.664zm8.694 0h4.664l-7.444 9.585 2.78-9.585zm.563-1.334l1.648-3.41 2.5 3.41H16.91z" fill="currentColor"></path></svg>