<svg width="24" height="24" fill="none" xmlns="http://www.w3.org/2000/svg" class="MuiSvgIcon-root MuiSvgIcon-fontSizeMedium mui-15o2vwz" focusable="false" aria-hidden="true" viewBox="0 0 24 24"><path d="M3 16a1 1 0 011-1h5a1 1 0 011 1v4a3 3 0 01-3 3H6a3 3 0 01-3-3v-4zM16 16a1 1 0 011-1h5a1 1 0 011 1v4a3 3 0 01-3 3h-1a3 3 0 01-3-3v-4z" fill="#FDD835"></path><path d="M5.59 22.7c-2.34 0-4.32-1.98-4.32-4.32v-6.16C1.21 9.31 2.3 6.56 4.32 4.49 6.34 2.43 9.06 1.3 11.97 1.3c5.96 0 10.8 4.85 10.8 10.81v6.16c0 2.38-1.94 4.32-4.32 4.32-2.38 0-4.32-1.94-4.32-4.32v-2.81a2.59 2.59 0 012.59-2.59c1.43 0 2.22-.007 4.55-.007v1.507h-1.294c-.41 0-.438.01-1.628 0H16.72c-.68 0-1.09.55-1.09 1.09v2.81c0 1.53 1.29 2.82 2.82 2.82 1.53 0 2.82-1.29 2.82-2.82v-6.16c0-5.13-4.17-9.31-9.3-9.31-2.51 0-4.84.97-6.58 2.74-1.74 1.77-2.67 4.14-2.62 6.66v6.17c0 1.53 1.29 2.82 2.82 2.82 1.53 0 2.82-1.29 2.82-2.82v-2.81c0-.68-.55-1.09-1.09-1.09-.68 0-.82.03-1.32.03H5c-.5 0-1.82-.02-2.23-.02v-1.507h1.214c1 0 1.886-.003 3.336-.003a2.59 2.59 0 012.59 2.59v2.81a4.33 4.33 0 01-4.32 4.33z" fill="currentColor"></path></svg>