<svg width="24" height="24" fill="none" xmlns="http://www.w3.org/2000/svg" class="MuiSvgIcon-root MuiSvgIcon-fontSizeMedium mui-wkxl0u" focusable="false" aria-hidden="true" viewBox="0 0 24 24"><path d="M3.64 8.258l2.58-1.179c.629-.288 1.317.248 1.252.975l-.576 5.387c-.109 1.215.512 3.443 1.55 3.96l3.033 1.51c.732.364.68 1.492-.08 1.778l-3.044 1.146c-1.406.529-2.948-.254-3.45-1.75L2.159 11.88c-.48-1.435.169-3.022 1.483-3.622z" fill="#FDD835"></path><path d="M8.51 4.686c1.315-2.408 3.51-3.143 6.868-2.42l.309.07 1.668.389c4.5 1.052 6.062 3.447 5.11 7.859l-.06.272-.98 4.18c-.88 3.782-2.728 5.51-5.91 5.381l-.25-.012c-.55.34-1.2.638-1.97.909l-.336.114-1.585.521c-4.274 1.378-6.772.173-8.205-3.98l-.088-.263-1.28-3.95C.42 9.475 1.622 6.97 5.766 5.55l1.85-.61.417-.126c.066-.02.13-.038.193-.055l.283-.073zm-.724 1.777l-1.531.505c-3.29 1.122-4.118 2.749-3.103 6.085l.075.241 1.28 3.95c1.136 3.495 2.755 4.39 6.162 3.354l.24-.075 1.582-.52.164-.057-1.132-.27a13.852 13.852 0 01-.963-.269l-.266-.089c-.19-.066-.371-.134-.546-.207l-.174-.074-.444-.209-.327-.177-.328-.201-.26-.181-.19-.145-.14-.116-.271-.252-.201-.214-.148-.176-.173-.231-.15-.231-.119-.208-.09-.177-.1-.224-.091-.241-.093-.293-.027-.104a5.271 5.271 0 01-.125-.633 6.391 6.391 0 01-.048-.495l-.01-.256-.003-.21c0-.11.003-.223.008-.337l.01-.165.014-.197c.037-.448.108-.92.212-1.42l.084-.38.98-4.19c.056-.238.114-.465.175-.682l.067-.23zm7.556-2.668c-3.058-.723-4.664-.17-5.655 1.881-.229.466-.43 1.041-.608 1.735l-.075.305-.98 4.19c-.864 3.687.104 5.358 3.676 6.269l1.93.461c.244.06.48.108.708.148.186.033.366.059.54.079l.268.026c2.62.252 3.975-.838 4.753-3.925l.065-.27L21 10.265c.765-3.522-.24-5.14-3.738-6.02l-.248-.06-1.672-.39zM11.758 11.9l.1.018 2.9.74a.75.75 0 01-.27 1.472l-.1-.018-2.9-.74a.75.75 0 01.27-1.472zm.98-3.87l.1.018 4.85 1.23a.75.75 0 01-.269 1.473l-.1-.019-4.85-1.23a.75.75 0 01.268-1.472z" fill="currentColor"></path></svg>