<svg width="24" height="24" fill="none" xmlns="http://www.w3.org/2000/svg" class="MuiSvgIcon-root MuiSvgIcon-fontSizeMedium mui-f8xjcr" focusable="false" aria-hidden="true" viewBox="0 0 24 24"><path d="M13.49 20.073c4.436 0 8.11-3.674 8.11-8.11 0-4.429-3.682-8.112-8.119-8.112-4.126 0-7.583 3.181-8.044 7.207a5.674 5.674 0 011.005-.092c2.427 0 4.478 1.716 4.989 3.926a8.664 8.664 0 012.05-.243c2.361 0 4.16.87 4.956 1.8-1.18 1.34-3.005 2.21-4.956 2.21a6.425 6.425 0 01-2.377-.46c-.117.334-.41.803-.77 1.221.98.427 2.043.653 3.156.653zm-.008-6.771c-1.524-.017-2.712-1.29-2.72-2.997-.01-1.599 1.204-2.93 2.72-2.93 1.523 0 2.72 1.331 2.72 2.93 0 1.707-1.197 3.005-2.72 2.997zm-7.04 6.847c2.193 0 4.043-1.834 4.043-4.043 0-2.219-1.825-4.043-4.043-4.043-2.21 0-4.043 1.824-4.043 4.043 0 2.218 1.833 4.043 4.043 4.043zm-.477-1.666c-.134 0-.31-.05-.41-.168L4.04 16.659a.56.56 0 01-.11-.343c0-.301.235-.519.52-.519.175 0 .301.075.393.176L5.94 17.16l2.067-2.862a.527.527 0 01.435-.226c.277 0 .52.217.52.51 0 .092-.034.21-.11.31L6.4 18.29c-.084.118-.251.193-.435.193z" fill="currentColor"></path></svg>