<svg width="24" height="24" fill="none" xmlns="http://www.w3.org/2000/svg" class="MuiSvgIcon-root MuiSvgIcon-fontSizeMedium mui-10g48rb" focusable="false" aria-hidden="true" viewBox="0 0 24 24"><path d="M12 19.885c.134 0 .335-.05.536-.15 4.511-2.353 5.976-3.541 5.976-6.387V7.405c0-.854-.351-1.139-1.046-1.432-.912-.376-3.859-1.44-4.754-1.74A2.264 2.264 0 0012 4.114c-.234 0-.477.05-.703.117-.904.293-3.842 1.373-4.755 1.741-.694.285-1.054.578-1.054 1.432v5.943c0 2.846 1.548 3.909 5.985 6.386.2.11.401.151.527.151zm-.879-4.31c-.284 0-.51-.118-.728-.402l-1.967-2.411a.864.864 0 01-.201-.528c0-.376.293-.678.67-.678.234 0 .418.076.61.335l1.583 2.026 3.348-5.366c.15-.25.36-.376.586-.376.368 0 .703.25.703.636 0 .176-.1.368-.2.527l-3.726 5.835c-.167.267-.402.401-.678.401z" fill="currentColor"></path></svg>