<svg width="135" height="40" viewBox="0 0 135 40" fill="none" xmlns="http://www.w3.org/2000/svg">
<path d="M130.1 40.0004L4.80043 40.0004C4.16773 40.0089 3.53976 39.8905 2.95357 39.6523C2.36738 39.4141 1.83485 39.0608 1.38744 38.6134C0.940015 38.166 0.586767 37.6335 0.348545 37.0473C0.110322 36.4611 -0.00804732 35.8331 0.000424656 35.2004L0.000424656 4.80043C-0.00804732 4.16773 0.110322 3.53976 0.348545 2.95357C0.586767 2.36738 0.940015 1.83485 1.38744 1.38744C1.83485 0.940015 2.36738 0.586767 2.95357 0.348545C3.53976 0.110322 4.16773 -0.00804732 4.80043 0.000424656L130.2 0.000424656C131.473 0.000424656 132.694 0.506137 133.595 1.40631C134.495 2.30649 135 3.52739 135 4.80043V35.3004C134.957 36.5678 134.421 37.7682 133.505 38.646C132.59 39.5238 131.369 40.0098 130.1 40.0004Z" fill="#A6A6A6"/>
<path d="M130.099 39.0004L4.79944 39.0004C3.79161 39.0004 2.82507 38.6001 2.11243 37.8874C1.39979 37.1748 0.999435 36.2083 0.999435 35.2004L0.999435 4.80043C0.999435 3.7926 1.39979 2.82606 2.11243 2.11342C2.82507 1.40078 3.79161 1.00043 4.79944 1.00043L130.199 1.00043C131.207 1.00043 132.174 1.40078 132.886 2.11342C133.599 2.82606 133.999 3.7926 133.999 4.80043V35.3004C133.94 36.2968 133.504 37.2333 132.78 37.9202C132.056 38.6072 131.098 38.9933 130.099 39.0004Z" fill="black"/>
<path d="M23.0322 12.8447C23.0186 13.1583 22.9607 13.44 22.8584 13.6899C22.7562 13.9421 22.6153 14.1557 22.4358 14.3306C22.2563 14.5078 22.0393 14.6442 21.7849 14.7396C21.5304 14.835 21.243 14.8827 20.9226 14.8827H20.5V14.0341H20.9226C21.1407 14.0341 21.3293 14.0114 21.4884 13.966C21.6474 13.9205 21.7781 13.8478 21.8803 13.7478C21.9825 13.6479 22.0587 13.5172 22.1086 13.3559C22.1586 13.1969 22.1836 13.0026 22.1836 12.7731V10.6976H23.0322V12.8447ZM21.9553 9.22193L22.5687 8.60166L23.1958 9.22874L22.5755 9.84901L21.9553 9.22193Z" fill="white"/>
<path d="M24.7395 13.0526H23.8909V8.13816H24.7395V13.0526Z" fill="white"/>
<path d="M28.6424 13.0015H27.7529V9.0413H28.6424V13.0015ZM27.6983 8.01206C27.6983 7.87574 27.7415 7.76214 27.8279 7.67125C27.9165 7.58037 28.0414 7.53493 28.2027 7.53493C28.3618 7.53493 28.4856 7.58037 28.5742 7.67125C28.6628 7.76214 28.7071 7.87574 28.7071 8.01206C28.7071 8.14611 28.6628 8.25744 28.5742 8.34605C28.4856 8.43466 28.3618 8.47897 28.2027 8.47897C28.0414 8.47897 27.9165 8.43466 27.8279 8.34605C27.7415 8.25744 27.6983 8.14611 27.6983 8.01206Z" fill="white"/>
<path d="M33.9552 10.4761C33.9552 10.9987 33.8643 11.4576 33.6826 11.853C33.5031 12.246 33.2452 12.5482 32.9089 12.7595C32.5749 12.9685 32.1898 13.073 31.7536 13.073C31.3196 13.073 30.9334 12.9685 30.5948 12.7595C30.2586 12.5482 29.9984 12.2472 29.8144 11.8564C29.6304 11.4656 29.5372 11.0146 29.5349 10.5034V10.2034C29.5349 9.68315 29.6269 9.2242 29.811 8.82659C29.995 8.42898 30.254 8.12453 30.588 7.91323C30.9243 7.70193 31.3105 7.59628 31.7468 7.59628C32.1807 7.59628 32.5647 7.70079 32.8987 7.90982C33.235 8.11885 33.494 8.41989 33.6757 8.81296C33.8598 9.20375 33.9529 9.6593 33.9552 10.1796V10.4761ZM33.0282 10.1966C33.0282 9.6059 32.9169 9.15376 32.6942 8.84022C32.4715 8.52441 32.1546 8.3665 31.7434 8.3665C31.3435 8.3665 31.0299 8.52327 30.8027 8.83681C30.5778 9.15036 30.4631 9.59454 30.4585 10.1694V10.4761C30.4585 11.0623 30.5721 11.5156 30.7993 11.8359C31.0288 12.154 31.3469 12.313 31.7536 12.313C32.1626 12.313 32.4772 12.1574 32.6976 11.8461C32.918 11.5326 33.0282 11.0759 33.0282 10.4761V10.1966Z" fill="white"/>
<path d="M37.663 11.628C37.663 11.394 37.5801 11.2134 37.4142 11.0861C37.2506 10.9589 36.9541 10.8305 36.5247 10.701C36.0953 10.5715 35.7545 10.4284 35.5023 10.2716C35.0161 9.96489 34.7729 9.56614 34.7729 9.07538C34.7729 8.64596 34.9479 8.29266 35.2978 8.01547C35.6477 7.73601 36.1021 7.59628 36.661 7.59628C37.0314 7.59628 37.3619 7.66557 37.6528 7.80417C37.9436 7.94049 38.1719 8.13475 38.3378 8.38695C38.5037 8.63915 38.5866 8.91861 38.5866 9.22533H37.663C37.663 8.94814 37.5755 8.73116 37.4006 8.57439C37.2279 8.41535 36.9791 8.33583 36.6542 8.33583C36.352 8.33583 36.1169 8.40058 35.9487 8.53009C35.7829 8.6596 35.6999 8.84022 35.6999 9.07197C35.6999 9.26737 35.7897 9.43095 35.9692 9.56273C36.1509 9.69224 36.4486 9.81947 36.8621 9.94444C37.2779 10.0671 37.6107 10.2069 37.8607 10.3636C38.1129 10.5204 38.2969 10.701 38.4128 10.9055C38.5309 11.11 38.59 11.3486 38.59 11.6212C38.59 12.0665 38.4196 12.4198 38.0788 12.6811C37.7402 12.9424 37.279 13.073 36.6951 13.073C36.3089 13.073 35.9533 13.0026 35.6284 12.8617C35.3057 12.7186 35.0547 12.5221 34.8752 12.2722C34.6957 12.02 34.606 11.7257 34.606 11.3895H35.5329C35.5329 11.6939 35.6329 11.9291 35.8329 12.0949C36.0328 12.2608 36.3202 12.3437 36.6951 12.3437C37.0177 12.3437 37.2597 12.279 37.421 12.1495C37.5823 12.0177 37.663 11.8439 37.663 11.628Z" fill="white"/>
<path d="M44.5899 13.0526H44.4945C44.3172 13.0526 44.1468 13.0356 43.9832 13.0015C43.8197 12.9697 43.6686 12.9208 43.53 12.8549C43.3914 12.7868 43.2675 12.7004 43.1585 12.5959C43.0517 12.4914 42.9642 12.3676 42.8961 12.2244C42.8415 12.3085 42.7711 12.3835 42.6848 12.4494C42.6007 12.513 42.5087 12.5664 42.4087 12.6096C42.3087 12.6527 42.2054 12.6857 42.0986 12.7084C41.9918 12.7288 41.8896 12.7391 41.7919 12.7391C41.6101 12.7391 41.4374 12.7072 41.2738 12.6436C41.1125 12.58 40.9705 12.4903 40.8478 12.3744C40.7251 12.2562 40.6274 12.1131 40.5547 11.945C40.4843 11.7768 40.4491 11.5871 40.4491 11.3758C40.4491 11.1304 40.4956 10.9146 40.5888 10.7283C40.682 10.542 40.8058 10.3795 40.9603 10.2409C41.1148 10.1001 41.292 9.98079 41.4919 9.88309C41.6942 9.78312 41.9032 9.69678 42.119 9.62408L42.0372 9.2969L42.8688 9.10264L43.4891 11.5156C43.5254 11.6632 43.5845 11.7825 43.6663 11.8734C43.7481 11.962 43.8367 12.0313 43.9321 12.0813C44.0298 12.129 44.1287 12.162 44.2286 12.1801C44.3309 12.196 44.4195 12.204 44.4945 12.204H44.5899V13.0526ZM42.4905 11.3588C42.5019 11.3111 42.5075 11.2622 42.5075 11.2122C42.5075 11.1963 42.5053 11.1691 42.5007 11.1304C42.4985 11.0895 42.4894 11.0327 42.4735 10.96C42.4576 10.8873 42.436 10.809 42.4087 10.7249C42.3837 10.6408 42.3565 10.5465 42.3269 10.442C41.9634 10.5579 41.6873 10.6897 41.4988 10.8374C41.3125 10.9828 41.2193 11.1634 41.2193 11.3792C41.2193 11.4633 41.2375 11.5383 41.2738 11.6042C41.3125 11.6701 41.3613 11.7246 41.4204 11.7678C41.4817 11.8109 41.5499 11.8416 41.6249 11.8598C41.6726 11.8734 41.7203 11.8802 41.768 11.8802C41.793 11.8802 41.8191 11.878 41.8464 11.8734C42.0168 11.8484 42.1588 11.7984 42.2724 11.7234C42.386 11.6462 42.4587 11.5246 42.4905 11.3588Z" fill="white"/>
<path d="M48.6398 11.6962C48.6284 11.703 48.592 11.728 48.5307 11.7712C48.4693 11.8121 48.3864 11.8655 48.2819 11.9313C48.3046 11.9995 48.3398 12.0529 48.3876 12.0912C48.4353 12.1279 48.4841 12.1551 48.5341 12.1733C48.5841 12.1892 48.6307 12.1983 48.6738 12.2006C48.7193 12.2029 48.7511 12.204 48.7693 12.204H51.6922V13.0526H48.7693C48.4989 13.0503 48.2558 12.9913 48.0399 12.8754C47.8264 12.7572 47.6594 12.5811 47.5389 12.3471C47.364 12.4335 47.1754 12.5198 46.9732 12.6061C46.771 12.6902 46.5597 12.7652 46.3393 12.8311C46.1189 12.897 45.8928 12.9504 45.6611 12.9913C45.4294 13.0321 45.1976 13.0526 44.9659 13.0526H44.4501V12.204H44.9659C45.1885 12.204 45.4259 12.1813 45.6781 12.1358C45.9303 12.0904 46.1791 12.0324 46.4245 11.962C46.6699 11.8893 46.9028 11.8087 47.1232 11.72C47.3458 11.6314 47.5389 11.544 47.7025 11.4576C47.6003 11.4258 47.4878 11.3917 47.3651 11.3554C47.2424 11.3168 47.1175 11.2793 46.9902 11.2429C46.863 11.2043 46.7369 11.1679 46.612 11.1339C46.487 11.0975 46.37 11.0657 46.2609 11.0384C46.1519 11.0112 46.0542 10.9896 45.9678 10.9737C45.8815 10.9578 45.8133 10.9498 45.7633 10.9498C45.7111 10.9498 45.6645 10.9566 45.6236 10.9703C45.585 10.9816 45.5498 11.0021 45.518 11.0316C45.4861 11.0589 45.4566 11.0952 45.4293 11.1407C45.4021 11.1861 45.3737 11.2406 45.3441 11.3043L44.5637 11.0691C44.6069 10.9328 44.6591 10.8055 44.7205 10.6874C44.7841 10.567 44.8602 10.4625 44.9488 10.3739C45.0397 10.2852 45.1442 10.2159 45.2624 10.166C45.3805 10.1137 45.5157 10.0876 45.6679 10.0876C45.727 10.0876 45.8111 10.1001 45.9201 10.1251C46.0292 10.1501 46.153 10.183 46.2916 10.2239C46.4302 10.2648 46.5779 10.3114 46.7346 10.3636C46.8937 10.4159 47.0527 10.4704 47.2118 10.5272C47.3708 10.584 47.5253 10.6397 47.6753 10.6942C47.8252 10.7487 47.9604 10.7987 48.0808 10.8442C48.2012 10.8873 48.3024 10.9237 48.3841 10.9532C48.4659 10.9828 48.5182 11.0009 48.5409 11.0078L48.6398 11.6962ZM44.9147 8.7039L45.5282 8.08363L46.1553 8.71072L45.535 9.33098L44.9147 8.7039Z" fill="white"/>
<path d="M49.2509 12.204H51.9898C52.1239 12.204 52.2318 12.1926 52.3136 12.1699C52.3977 12.1472 52.4624 12.1142 52.5079 12.0711C52.5556 12.0256 52.5874 11.9711 52.6033 11.9075C52.6192 11.8439 52.6272 11.7712 52.6272 11.6894V10.6976H53.4758V11.6723C53.4758 11.8564 53.5201 11.9904 53.6087 12.0745C53.6973 12.1585 53.837 12.2017 54.0279 12.204C54.062 12.2017 54.1029 12.1949 54.1506 12.1835C54.2006 12.1722 54.2483 12.1495 54.2937 12.1154C54.3414 12.079 54.3812 12.0279 54.413 11.962C54.4471 11.8939 54.4641 11.803 54.4641 11.6894V10.6976H55.3093V11.6723C55.3093 11.8586 55.3536 11.9938 55.4422 12.0779C55.5308 12.162 55.6751 12.204 55.875 12.204C55.9296 12.204 55.983 12.196 56.0352 12.1801C56.0898 12.162 56.1386 12.1336 56.1818 12.0949C56.2249 12.054 56.2602 12.0018 56.2874 11.9382C56.3147 11.8745 56.3306 11.7962 56.3351 11.703V10.6976H57.1838V11.7064C57.1883 11.8814 57.2417 12.0086 57.3439 12.0881C57.4462 12.1654 57.6029 12.204 57.8142 12.204H58.1482V13.0526H57.8142C57.5802 13.0526 57.3769 13.0276 57.2042 12.9776C57.0315 12.9254 56.8827 12.8413 56.7577 12.7254C56.6419 12.8322 56.5055 12.914 56.3488 12.9708C56.1943 13.0253 56.0364 13.0526 55.875 13.0526C55.6615 13.0526 55.474 13.0265 55.3127 12.9742C55.1537 12.922 55.0117 12.8379 54.8867 12.722C54.7686 12.8265 54.6356 12.9072 54.488 12.964C54.3425 13.0208 54.1949 13.0503 54.0449 13.0526H54.0211C53.8166 13.0526 53.6348 13.0253 53.4758 12.9708C53.3167 12.914 53.1781 12.8356 53.06 12.7356C52.7942 12.9469 52.4374 13.0526 51.9898 13.0526H49.2509V12.204Z" fill="white"/>
<path d="M59.9854 10.1898C59.99 10.2057 59.9991 10.2432 60.0127 10.3023C60.0286 10.3614 60.0456 10.4341 60.0638 10.5204C60.082 10.6045 60.1002 10.6988 60.1183 10.8033C60.1388 10.9078 60.157 11.0134 60.1729 11.1202C60.191 11.2247 60.2047 11.327 60.2138 11.4269C60.2251 11.5269 60.2308 11.6144 60.2308 11.6894C60.2308 11.9234 60.1922 12.1267 60.1149 12.2994C60.0377 12.4698 59.9366 12.6107 59.8116 12.722C59.6866 12.8333 59.5458 12.9163 59.389 12.9708C59.2345 13.0253 59.0789 13.0526 58.9221 13.0526H58.0156V12.204H58.946C58.9732 12.204 59.0119 12.2006 59.0618 12.1938C59.1141 12.1847 59.1652 12.1631 59.2152 12.129C59.2675 12.0949 59.3129 12.0438 59.3515 11.9756C59.3901 11.9052 59.4095 11.8098 59.4095 11.6894C59.4095 11.6394 59.4049 11.5792 59.3958 11.5087C59.389 11.436 59.3788 11.3588 59.3652 11.277C59.3515 11.1952 59.3356 11.1123 59.3174 11.0282C59.3015 10.9419 59.2856 10.8612 59.2697 10.7862C59.2538 10.709 59.2379 10.6397 59.222 10.5783C59.2061 10.5147 59.1936 10.4659 59.1845 10.4318L59.9854 10.1898ZM58.2075 8.81977L58.821 8.1995L59.4481 8.82659L58.8278 9.44686L58.2075 8.81977Z" fill="white"/>
<path d="M68.7333 10.6976V11.6962C68.7333 11.7757 68.7447 11.8439 68.7674 11.9007C68.7924 11.9552 68.8231 12.0018 68.8594 12.0404C68.898 12.0768 68.9401 12.1063 68.9855 12.129C69.031 12.1495 69.0753 12.1654 69.1184 12.1767C69.1616 12.1881 69.1991 12.196 69.2309 12.2006C69.265 12.2029 69.29 12.204 69.3059 12.204H69.5172V13.0526H69.3059C69.2286 13.0526 69.1457 13.0469 69.0571 13.0356C68.9707 13.0265 68.8833 13.0106 68.7947 12.9878C68.7083 12.9629 68.6243 12.9299 68.5425 12.889C68.4607 12.8481 68.388 12.7981 68.3243 12.7391C68.0767 12.9458 67.7404 13.0503 67.3156 13.0526H63.3826C63.2145 13.0526 63.0555 13.0242 62.9055 12.9674C62.7556 12.9106 62.6226 12.8277 62.5068 12.7186C62.4613 12.6754 62.4136 12.6232 62.3636 12.5618C62.3159 12.5005 62.2727 12.4278 62.2341 12.3437C62.1955 12.2597 62.1637 12.1654 62.1387 12.0609C62.1137 11.9541 62.1012 11.8348 62.1012 11.703C62.1012 11.5894 62.1126 11.4667 62.1353 11.3349C62.158 11.2009 62.183 11.0748 62.2103 10.9566C62.2398 10.8385 62.2671 10.7362 62.2921 10.6499C62.3171 10.5636 62.333 10.5102 62.3398 10.4897L62.7453 10.6192L63.1475 10.7453C63.127 10.8067 63.1055 10.8805 63.0827 10.9669C63.06 11.0509 63.0384 11.1384 63.018 11.2293C62.9975 11.3202 62.9805 11.4076 62.9669 11.4917C62.9532 11.5758 62.9464 11.6485 62.9464 11.7098C62.9464 11.8189 62.9612 11.9075 62.9907 11.9756C63.0225 12.0415 63.06 12.0927 63.1032 12.129C63.1486 12.1631 63.1975 12.1858 63.2497 12.1972C63.302 12.2085 63.3486 12.2142 63.3895 12.2142H67.2917C67.4167 12.2142 67.5234 12.2029 67.6121 12.1801C67.7007 12.1551 67.7666 12.1199 67.8097 12.0745C67.862 12.0154 67.8881 11.9302 67.8881 11.8189V10.6976H68.7333ZM66.1023 10.4113L65.5297 9.83197L66.0955 9.24578L66.6817 9.83197L66.1023 10.4113ZM64.6743 10.4148L64.1017 9.83538L64.6641 9.24919L65.2503 9.83538L64.6743 10.4148Z" fill="white"/>
<path d="M69.4061 13.0526V12.204H72.962C73.1528 12.204 73.313 12.1938 73.4425 12.1733C73.572 12.1506 73.6765 12.1222 73.756 12.0881C73.8378 12.054 73.8992 12.0165 73.9401 11.9756C73.981 11.9325 74.0105 11.8893 74.0287 11.8461C73.8628 11.8689 73.7072 11.8802 73.5618 11.8802C73.4391 11.8802 73.2903 11.8689 73.1153 11.8461C72.9404 11.8211 72.7688 11.7575 72.6007 11.6553C72.4326 11.5508 72.3031 11.4122 72.2122 11.2395C72.1236 11.0668 72.0793 10.8601 72.0793 10.6192C72.0793 10.4284 72.1145 10.2489 72.1849 10.0808C72.2553 9.91036 72.353 9.76267 72.478 9.63771C72.6052 9.51048 72.7552 9.4105 72.9279 9.3378C73.0778 9.27645 73.2426 9.24578 73.422 9.24578H73.4902C73.672 9.2526 73.8321 9.28441 73.9707 9.34121C74.1116 9.39801 74.2332 9.47299 74.3354 9.56614C74.4399 9.6593 74.5263 9.76835 74.5944 9.89332C74.6649 10.016 74.7205 10.1489 74.7614 10.2921C74.8046 10.4352 74.8353 10.5852 74.8534 10.7419C74.8739 10.8964 74.8852 11.0521 74.8875 11.2088L74.8739 11.461C74.8557 11.7791 74.7921 12.0415 74.683 12.2483C74.574 12.4528 74.432 12.6152 74.257 12.7356C74.0843 12.8538 73.8867 12.9367 73.664 12.9844C73.4414 13.0299 73.2073 13.0526 72.962 13.0526H69.4061ZM73.4834 10.0944C73.4607 10.0921 73.4391 10.091 73.4186 10.091C73.3596 10.091 73.2959 10.1001 73.2278 10.1182C73.1619 10.1342 73.0994 10.1648 73.0403 10.2103C72.9835 10.2557 72.937 10.3125 72.9006 10.3807C72.8665 10.4466 72.8495 10.5238 72.8495 10.6124C72.8495 10.8101 72.954 10.9521 73.163 11.0384C73.2835 11.0907 73.4345 11.1168 73.6163 11.1168C73.7481 11.1168 73.8958 11.1032 74.0594 11.0759C74.0548 10.9782 74.0469 10.8748 74.0355 10.7658C74.0241 10.6567 73.9991 10.5545 73.9605 10.4591C73.9219 10.3636 73.8651 10.283 73.7901 10.2171C73.7151 10.1489 73.6129 10.108 73.4834 10.0944ZM72.7098 7.93027L73.3232 7.31L73.9503 7.93708L73.33 8.55735L72.7098 7.93027Z" fill="white"/>
<path d="M77.4836 13.0526C77.2336 13.0526 77.0189 13.0367 76.8394 13.0049C76.6599 12.9753 76.5089 12.931 76.3862 12.872C76.2635 12.8106 76.1646 12.7334 76.0897 12.6402C76.017 12.5471 75.9613 12.438 75.9227 12.313C75.884 12.1881 75.8579 12.0472 75.8443 11.8904C75.8329 11.7314 75.8272 11.5565 75.8272 11.3656V8.13816H76.6758V11.3656C76.6758 11.5474 76.6815 11.6928 76.6929 11.8018C76.7065 11.9109 76.7395 11.9961 76.7917 12.0574C76.8463 12.1165 76.9269 12.1563 77.0337 12.1767C77.1428 12.1949 77.2927 12.204 77.4836 12.204V13.0526Z" fill="white"/>
<path d="M79.3795 10.1898C79.384 10.2057 79.3931 10.2432 79.4068 10.3023C79.4227 10.3614 79.4397 10.4341 79.4579 10.5204C79.4761 10.6045 79.4942 10.6988 79.5124 10.8033C79.5329 10.9078 79.551 11.0134 79.5669 11.1202C79.5851 11.2247 79.5988 11.327 79.6078 11.4269C79.6192 11.5269 79.6249 11.6144 79.6249 11.6894C79.6249 11.9234 79.5863 12.1267 79.509 12.2994C79.4318 12.4698 79.3307 12.6107 79.2057 12.722C79.0807 12.8333 78.9399 12.9163 78.7831 12.9708C78.6286 13.0253 78.473 13.0526 78.3162 13.0526H77.3472V12.204H78.34C78.3673 12.204 78.4059 12.2006 78.4559 12.1938C78.5082 12.1847 78.5593 12.1631 78.6093 12.129C78.6615 12.0949 78.707 12.0438 78.7456 11.9756C78.7842 11.9052 78.8035 11.8098 78.8035 11.6894C78.8035 11.6394 78.799 11.5792 78.7899 11.5087C78.7831 11.436 78.7729 11.3588 78.7592 11.277C78.7456 11.1952 78.7297 11.1123 78.7115 11.0282C78.6956 10.9419 78.6797 10.8612 78.6638 10.7862C78.6479 10.709 78.632 10.6397 78.6161 10.5783C78.6002 10.5147 78.5877 10.4659 78.5786 10.4318L79.3795 10.1898ZM77.9845 14.9066L77.4119 14.3272L77.9776 13.741L78.5638 14.3272L77.9845 14.9066ZM76.5565 14.91L75.9839 14.3306L76.5463 13.7444L77.1324 14.3306L76.5565 14.91Z" fill="white"/>
<path d="M81.9425 12.8447C81.9289 13.1583 81.871 13.44 81.7687 13.6899C81.6665 13.9421 81.5256 14.1557 81.3461 14.3306C81.1666 14.5078 80.9496 14.6442 80.6952 14.7396C80.4407 14.835 80.1533 14.8827 79.8329 14.8827H79.4103V14.0341H79.8329C80.051 14.0341 80.2396 14.0114 80.3987 13.966C80.5577 13.9205 80.6884 13.8478 80.7906 13.7478C80.8928 13.6479 80.969 13.5172 81.0189 13.3559C81.0689 13.1969 81.0939 13.0026 81.0939 12.7731V10.6976H81.9425V12.8447Z" fill="white"/>
<path d="M83.9259 13.056C83.8395 13.056 83.7543 13.0515 83.6703 13.0424C83.5862 13.0333 83.501 13.0208 83.4147 13.0049C83.3283 12.989 83.2397 12.9697 83.1488 12.9469C83.058 12.922 82.9625 12.8947 82.8626 12.8652L82.457 12.7425L82.7024 11.9245C82.9001 11.9927 83.1045 12.0529 83.3158 12.1052C83.5294 12.1574 83.7305 12.1915 83.9191 12.2074C83.9804 12.2119 84.0395 12.2142 84.0963 12.2142C84.2099 12.2142 84.3235 12.2017 84.4371 12.1767C84.553 12.1517 84.6348 12.0893 84.6825 11.9893C84.6916 11.9711 84.6961 11.9495 84.6961 11.9245C84.6961 11.9086 84.6916 11.8836 84.6825 11.8495C84.6734 11.8155 84.6507 11.7723 84.6143 11.72L83.3431 9.86605L84.0588 9.40255L84.2906 9.7604C84.2906 9.76267 84.2939 9.76949 84.3008 9.78085C84.3099 9.79221 84.3258 9.81607 84.3485 9.85242C84.3735 9.88877 84.4076 9.94103 84.4507 10.0092C84.4962 10.0751 84.5553 10.1626 84.628 10.2716C84.7007 10.3807 84.7893 10.5159 84.8938 10.6772C85.0006 10.8362 85.1278 11.0271 85.2755 11.2497C85.3914 11.4247 85.4629 11.6053 85.4902 11.7916C85.497 11.8393 85.5004 11.8859 85.5004 11.9313C85.5004 12.0677 85.4732 12.1983 85.4186 12.3233C85.38 12.4142 85.3278 12.4982 85.2619 12.5755C85.1982 12.6504 85.1233 12.7175 85.0369 12.7765C84.8756 12.8879 84.6813 12.964 84.4541 13.0049C84.2633 13.039 84.0872 13.056 83.9259 13.056Z" fill="white"/>
<path d="M38.6424 16.5354H42.0724C42.1652 16.5354 42.2542 16.5722 42.3199 16.6379C42.3855 16.7035 42.4224 16.7925 42.4224 16.8854V29.0354C42.4224 29.1388 42.3813 29.238 42.3081 29.3111C42.235 29.3843 42.1358 29.4254 42.0324 29.4254H38.6824C38.578 29.4254 38.4777 29.3846 38.403 29.3118C38.3283 29.2389 38.285 29.1397 38.2824 29.0354V16.8854C38.285 16.7916 38.3241 16.7026 38.3913 16.6372C38.4585 16.5719 38.5486 16.5353 38.6424 16.5354Z" fill="white"/>
<path d="M69.7924 25.3754H84.8724C84.9682 25.3764 85.0622 25.402 85.1454 25.4498C85.2285 25.4975 85.298 25.5658 85.3471 25.6481C85.3963 25.7304 85.4235 25.8239 85.4262 25.9197C85.4289 26.0156 85.4069 26.1105 85.3624 26.1954L84.5024 27.9354C84.2649 28.3905 83.9072 28.7719 83.4682 29.0381C83.0293 29.3043 82.5258 29.4452 82.0124 29.4454H70.3524C70.1806 29.4446 70.0127 29.3942 69.869 29.3001C69.7253 29.2061 69.6118 29.0725 69.5424 28.9154L68.6024 26.7954C67.9829 27.6135 67.1815 28.2762 66.2616 28.731C65.3417 29.1857 64.3286 29.42 63.3024 29.4154H62.3024C62.1366 29.4163 61.9739 29.3709 61.8326 29.2843C61.6912 29.1978 61.5769 29.0734 61.5024 28.9254L60.5824 27.0854C59.9565 27.8277 59.1755 28.4237 58.2943 28.8315C57.4132 29.2393 56.4533 29.4488 55.4824 29.4454H44.0024C43.9277 29.4459 43.8542 29.4274 43.7887 29.3917C43.7231 29.356 43.6678 29.3042 43.6278 29.2412C43.5878 29.1782 43.5645 29.1061 43.56 29.0316C43.5556 28.9571 43.5701 28.8827 43.6024 28.8154L44.9224 26.1754C45.0393 25.9412 45.2191 25.7443 45.4416 25.6065C45.6642 25.4687 45.9207 25.3956 46.1824 25.3954H55.4624C55.7779 25.3993 56.0911 25.3408 56.3839 25.2231C56.6767 25.1054 56.9433 24.9308 57.1682 24.7096C57.3932 24.4883 57.5722 24.2247 57.6947 23.9339C57.8173 23.6431 57.8811 23.3309 57.8824 23.0154V20.9454C57.885 20.8198 57.9367 20.7003 58.0265 20.6124C58.1162 20.5245 58.2368 20.4753 58.3624 20.4754H61.5924C61.6549 20.474 61.7171 20.4852 61.7753 20.5082C61.8335 20.5313 61.8865 20.5657 61.9312 20.6094C61.9759 20.6532 62.0114 20.7055 62.0357 20.7632C62.0599 20.8209 62.0724 20.8828 62.0724 20.9454V23.0454C62.0704 23.7262 61.9555 24.4021 61.7324 25.0454C61.7196 25.0832 61.7161 25.1236 61.7221 25.1631C61.7281 25.2026 61.7435 25.2401 61.767 25.2724C61.7905 25.3048 61.8215 25.331 61.8572 25.3489C61.8929 25.3668 61.9324 25.3759 61.9724 25.3754H63.3624C63.9954 25.3754 64.6029 25.1253 65.0524 24.6795C65.5019 24.2337 65.7571 23.6284 65.7624 22.9954V20.8954C65.7624 20.7707 65.8119 20.6512 65.9 20.563C65.9882 20.4749 66.1077 20.4254 66.2324 20.4254H69.4324C69.557 20.4254 69.6766 20.4749 69.7647 20.563C69.8529 20.6512 69.9024 20.7707 69.9024 20.8954V22.9654C69.905 23.6703 69.7866 24.3705 69.5524 25.0354C69.5375 25.0738 69.5324 25.1153 69.5375 25.1561C69.5425 25.197 69.5576 25.236 69.5813 25.2696C69.6051 25.3033 69.6368 25.3305 69.6736 25.349C69.7104 25.3674 69.7512 25.3765 69.7924 25.3754Z" fill="white"/>
<path d="M37.0924 28.7953L35.7724 26.1553C35.6554 25.9212 35.4756 25.7242 35.2531 25.5865C35.0306 25.4487 34.7741 25.3756 34.5124 25.3754H20.6624C20.5659 25.3757 20.471 25.4006 20.3868 25.4477C20.3025 25.4947 20.2316 25.5624 20.1806 25.6443C20.1296 25.7263 20.1003 25.8198 20.0954 25.9162C20.0904 26.0126 20.11 26.1086 20.1524 26.1954L21.0424 27.9254C21.2778 28.3793 21.6339 28.7595 22.0714 29.0241C22.509 29.2888 23.011 29.4276 23.5224 29.4254H36.6924C36.767 29.4259 36.8405 29.4074 36.9061 29.3717C36.9716 29.336 37.027 29.2842 37.067 29.2212C37.107 29.1582 37.1303 29.0861 37.1347 29.0116C37.1392 28.9371 37.1246 28.8627 37.0924 28.7953Z" fill="white"/>
<path d="M29.7824 30.8053H27.7124C27.616 30.8053 27.5233 30.8429 27.4542 30.9102C27.3851 30.9774 27.345 31.069 27.3424 31.1653V33.1653C27.345 33.2617 27.3851 33.3533 27.4542 33.4205C27.5233 33.4878 27.616 33.5254 27.7124 33.5253H29.7824C29.8788 33.5254 29.9714 33.4878 30.0405 33.4205C30.1096 33.3533 30.1498 33.2617 30.1524 33.1653V31.1653C30.1498 31.069 30.1096 30.9774 30.0405 30.9102C29.9714 30.8429 29.8788 30.8053 29.7824 30.8053Z" fill="white"/>
<path d="M67.7424 30.8053H62.1624C62.066 30.8053 61.9733 30.8429 61.9042 30.9102C61.8351 30.9774 61.795 31.069 61.7924 31.1653V33.1653C61.795 33.2617 61.8351 33.3533 61.9042 33.4205C61.9733 33.4878 62.066 33.5254 62.1624 33.5253H67.7424C67.8388 33.5254 67.9314 33.4878 68.0005 33.4205C68.0696 33.3533 68.1098 33.2617 68.1124 33.1653V31.1653C68.1098 31.069 68.0696 30.9774 68.0005 30.9102C67.9314 30.8429 67.8388 30.8053 67.7424 30.8053Z" fill="white"/>
<path d="M31.4524 30.8053H37.0324C37.1288 30.8053 37.2214 30.8429 37.2905 30.9102C37.3596 30.9774 37.3998 31.069 37.4024 31.1653V33.1653C37.3998 33.2617 37.3596 33.3533 37.2905 33.4205C37.2214 33.4878 37.1288 33.5254 37.0324 33.5253H31.4524C31.356 33.5254 31.2633 33.4878 31.1942 33.4205C31.1251 33.3533 31.085 33.2617 31.0824 33.1653V31.1653C31.085 31.069 31.1251 30.9774 31.1942 30.9102C31.2633 30.8429 31.356 30.8053 31.4524 30.8053Z" fill="white"/>
<path d="M53.9324 30.8054H51.8724C51.8243 30.804 51.7764 30.8123 51.7315 30.8298C51.6867 30.8473 51.6458 30.8736 51.6113 30.9072C51.5768 30.9408 51.5494 30.9809 51.5307 31.0252C51.512 31.0696 51.5024 31.1172 51.5024 31.1654V33.1654C51.5024 33.2135 51.512 33.2611 51.5307 33.3055C51.5494 33.3498 51.5768 33.39 51.6113 33.4235C51.6458 33.4571 51.6867 33.4834 51.7315 33.5009C51.7764 33.5184 51.8243 33.5267 51.8724 33.5254H53.9324C53.9805 33.5267 54.0284 33.5184 54.0732 33.5009C54.1181 33.4834 54.1589 33.4571 54.1934 33.4235C54.2279 33.39 54.2553 33.3498 54.2741 33.3055C54.2928 33.2611 54.3024 33.2135 54.3024 33.1654V31.1654C54.3024 31.1172 54.2928 31.0696 54.2741 31.0252C54.2553 30.9809 54.2279 30.9408 54.1934 30.9072C54.1589 30.8736 54.1181 30.8473 54.0732 30.8298C54.0284 30.8123 53.9805 30.804 53.9324 30.8054Z" fill="white"/>
<path d="M103.244 6.60785C109.034 6.71785 109.414 11.7778 109.414 11.7778C103.594 12.2678 103.244 6.60785 103.244 6.60785Z" fill="white"/>
<path d="M105.164 18.2478C104.017 19.28 103.243 20.6621 102.963 22.1794C102.683 23.6967 102.911 25.2641 103.614 26.6378C99.8838 20.4078 101.294 15.5078 101.294 15.5078C109.394 11.4478 113.944 14.9078 113.944 14.9078C110.705 14.8975 107.577 16.0874 105.164 18.2478Z" fill="white"/>
<path d="M114.334 19.5878C113.315 18.4337 111.94 17.6533 110.427 17.3706C108.914 17.088 107.35 17.3193 105.984 18.0278C112.184 14.2778 117.054 15.6878 117.054 15.6878C121.054 23.8378 117.654 28.4078 117.654 28.4078C117.667 25.16 116.486 22.0207 114.334 19.5878Z" fill="white"/>
<path d="M115.096 24.7427C114.814 26.2579 114.04 27.6376 112.894 28.6678C110.486 30.8313 107.361 32.0249 104.124 32.0178C104.124 32.0178 108.664 35.4778 116.764 31.4178C116.764 31.4178 118.164 26.5078 114.454 20.2878C115.153 21.6616 115.378 23.2275 115.096 24.7427Z" fill="white"/>
<path d="M100.364 18.4879C100.351 21.7374 101.537 24.8775 103.694 27.3079C104.711 28.4611 106.084 29.2412 107.595 29.5239C109.106 29.8066 110.669 29.5756 112.034 28.8679C105.844 32.6179 100.964 31.1979 100.964 31.1979C96.9238 23.0579 100.364 18.4879 100.364 18.4879Z" fill="white"/>
</svg>