<svg width="135" height="40" viewBox="0 0 135 40" fill="none" xmlns="http://www.w3.org/2000/svg">
<path d="M130.1 40.0004L4.80043 40.0004C4.16773 40.0089 3.53976 39.8905 2.95357 39.6523C2.36738 39.4141 1.83485 39.0608 1.38744 38.6134C0.940015 38.166 0.586767 37.6335 0.348545 37.0473C0.110322 36.4611 -0.00804732 35.8331 0.000424656 35.2004L0.000424656 4.80043C-0.00804732 4.16773 0.110322 3.53976 0.348545 2.95357C0.586767 2.36738 0.940015 1.83485 1.38744 1.38744C1.83485 0.940015 2.36738 0.586767 2.95357 0.348545C3.53976 0.110322 4.16773 -0.00804732 4.80043 0.000424656L130.2 0.000424656C131.473 0.000424656 132.694 0.506137 133.595 1.40631C134.495 2.30649 135 3.52739 135 4.80043V35.3004C134.957 36.5678 134.421 37.7682 133.505 38.646C132.59 39.5238 131.369 40.0098 130.1 40.0004Z" fill="#A6A6A6"/>
<path d="M130.099 39.0004L4.79944 39.0004C3.79161 39.0004 2.82507 38.6001 2.11243 37.8874C1.39979 37.1748 0.999435 36.2083 0.999435 35.2004L0.999435 4.80043C0.999435 3.7926 1.39979 2.82606 2.11243 2.11342C2.82507 1.40078 3.79161 1.00043 4.79944 1.00043L130.199 1.00043C131.207 1.00043 132.174 1.40078 132.886 2.11342C133.599 2.82606 133.999 3.7926 133.999 4.80043V35.3004C133.94 36.2968 133.504 37.2333 132.78 37.9202C132.056 38.6072 131.098 38.9933 130.099 39.0004Z" fill="black"/>
<path d="M23.5322 12.8447C23.5186 13.1582 23.4606 13.44 23.3584 13.6899C23.2561 13.9421 23.1153 14.1557 22.9358 14.3306C22.7563 14.5078 22.5393 14.6442 22.2848 14.7396C22.0304 14.835 21.743 14.8827 21.4226 14.8827H21V14.0341H21.4226C21.6407 14.0341 21.8293 14.0114 21.9883 13.966C22.1474 13.9205 22.278 13.8478 22.3803 13.7478C22.4825 13.6479 22.5586 13.5172 22.6086 13.3559C22.6586 13.1969 22.6836 13.0026 22.6836 12.7731V10.6976H23.5322V12.8447ZM22.4552 9.22193L23.0687 8.60166L23.6958 9.22874L23.0755 9.84901L22.4552 9.22193Z" fill="white"/>
<path d="M25.2395 13.0526H24.3909V8.13816H25.2395V13.0526Z" fill="white"/>
<path d="M29.1424 13.0015H28.2528V9.0413H29.1424V13.0015ZM28.1983 8.01206C28.1983 7.87574 28.2415 7.76214 28.3278 7.67125C28.4164 7.58037 28.5414 7.53493 28.7027 7.53493C28.8618 7.53493 28.9856 7.58037 29.0742 7.67125C29.1628 7.76214 29.2071 7.87574 29.2071 8.01206C29.2071 8.14611 29.1628 8.25744 29.0742 8.34605C28.9856 8.43466 28.8618 8.47897 28.7027 8.47897C28.5414 8.47897 28.4164 8.43466 28.3278 8.34605C28.2415 8.25744 28.1983 8.14611 28.1983 8.01206Z" fill="white"/>
<path d="M34.4552 10.4761C34.4552 10.9987 34.3643 11.4576 34.1825 11.853C34.003 12.246 33.7452 12.5482 33.4089 12.7595C33.0749 12.9685 32.6898 13.073 32.2536 13.073C31.8196 13.073 31.4333 12.9685 31.0948 12.7595C30.7585 12.5482 30.4984 12.2472 30.3144 11.8564C30.1303 11.4656 30.0372 11.0146 30.0349 10.5034V10.2035C30.0349 9.68315 30.1269 9.2242 30.311 8.82659C30.495 8.42898 30.754 8.12453 31.088 7.91323C31.4243 7.70193 31.8105 7.59628 32.2467 7.59628C32.6807 7.59628 33.0647 7.70079 33.3987 7.90982C33.7349 8.11885 33.9939 8.41989 34.1757 8.81296C34.3597 9.20375 34.4529 9.6593 34.4552 10.1796V10.4761ZM33.5282 10.1966C33.5282 9.6059 33.4168 9.15376 33.1942 8.84022C32.9715 8.52441 32.6546 8.3665 32.2433 8.3665C31.8434 8.3665 31.5299 8.52327 31.3027 8.83681C31.0778 9.15036 30.963 9.59454 30.9585 10.1694V10.4761C30.9585 11.0623 31.0721 11.5156 31.2993 11.8359C31.5288 12.154 31.8469 12.313 32.2536 12.313C32.6625 12.313 32.9772 12.1574 33.1976 11.8461C33.418 11.5326 33.5282 11.0759 33.5282 10.4761V10.1966Z" fill="white"/>
<path d="M38.163 11.628C38.163 11.394 38.08 11.2134 37.9142 11.0861C37.7506 10.9589 37.4541 10.8305 37.0247 10.701C36.5952 10.5715 36.2544 10.4284 36.0022 10.2716C35.516 9.96489 35.2729 9.56614 35.2729 9.07538C35.2729 8.64596 35.4479 8.29266 35.7978 8.01547C36.1477 7.73601 36.6021 7.59628 37.161 7.59628C37.5313 7.59628 37.8619 7.66557 38.1527 7.80417C38.4436 7.94049 38.6719 8.13475 38.8378 8.38695C39.0036 8.63915 39.0865 8.91861 39.0865 9.22533H38.163C38.163 8.94814 38.0755 8.73116 37.9005 8.57439C37.7279 8.41535 37.4791 8.33583 37.1542 8.33583C36.852 8.33583 36.6168 8.40058 36.4487 8.53009C36.2828 8.6596 36.1999 8.84022 36.1999 9.07197C36.1999 9.26737 36.2897 9.43095 36.4691 9.56273C36.6509 9.69224 36.9486 9.81947 37.3621 9.94444C37.7779 10.0671 38.1107 10.2069 38.3606 10.3636C38.6128 10.5204 38.7969 10.701 38.9127 10.9055C39.0309 11.11 39.09 11.3486 39.09 11.6212C39.09 12.0665 38.9196 12.4198 38.5787 12.6811C38.2402 12.9424 37.779 13.073 37.1951 13.073C36.8088 13.073 36.4532 13.0026 36.1283 12.8617C35.8057 12.7186 35.5547 12.5221 35.3752 12.2722C35.1957 12.02 35.1059 11.7257 35.1059 11.3895H36.0329C36.0329 11.6939 36.1329 11.9291 36.3328 12.0949C36.5328 12.2608 36.8202 12.3437 37.1951 12.3437C37.5177 12.3437 37.7597 12.279 37.921 12.1495C38.0823 12.0177 38.163 11.8439 38.163 11.628Z" fill="white"/>
<path d="M45.0898 13.0526H44.9944C44.8172 13.0526 44.6468 13.0356 44.4832 13.0015C44.3196 12.9697 44.1685 12.9208 44.0299 12.8549C43.8913 12.7868 43.7675 12.7004 43.6585 12.5959C43.5517 12.4914 43.4642 12.3676 43.396 12.2244C43.3415 12.3085 43.2711 12.3835 43.1847 12.4494C43.1007 12.513 43.0087 12.5664 42.9087 12.6095C42.8087 12.6527 42.7053 12.6857 42.5986 12.7084C42.4918 12.7288 42.3895 12.7391 42.2918 12.7391C42.1101 12.7391 41.9374 12.7072 41.7738 12.6436C41.6125 12.58 41.4705 12.4903 41.3478 12.3744C41.2251 12.2562 41.1274 12.1131 41.0547 11.945C40.9843 11.7768 40.949 11.5871 40.949 11.3758C40.949 11.1304 40.9956 10.9146 41.0888 10.7283C41.1819 10.542 41.3058 10.3795 41.4603 10.2409C41.6148 10.1001 41.792 9.98079 41.9919 9.88309C42.1941 9.78312 42.4032 9.69678 42.619 9.62408L42.5372 9.2969L43.3688 9.10264L43.989 11.5156C44.0254 11.6632 44.0845 11.7825 44.1663 11.8734C44.2481 11.962 44.3367 12.0313 44.4321 12.0813C44.5298 12.129 44.6286 12.162 44.7286 12.1801C44.8308 12.196 44.9194 12.204 44.9944 12.204H45.0898V13.0526ZM42.9905 11.3588C43.0018 11.3111 43.0075 11.2622 43.0075 11.2122C43.0075 11.1963 43.0052 11.1691 43.0007 11.1304C42.9984 11.0895 42.9893 11.0327 42.9734 10.96C42.9575 10.8873 42.9359 10.809 42.9087 10.7249C42.8837 10.6408 42.8564 10.5465 42.8269 10.442C42.4634 10.5579 42.1873 10.6897 41.9987 10.8374C41.8124 10.9828 41.7193 11.1634 41.7193 11.3792C41.7193 11.4633 41.7374 11.5383 41.7738 11.6042C41.8124 11.6701 41.8613 11.7246 41.9203 11.7678C41.9817 11.8109 42.0499 11.8416 42.1248 11.8598C42.1725 11.8734 42.2203 11.8802 42.268 11.8802C42.293 11.8802 42.3191 11.878 42.3464 11.8734C42.5168 11.8484 42.6588 11.7984 42.7724 11.7234C42.886 11.6462 42.9587 11.5246 42.9905 11.3588Z" fill="white"/>
<path d="M49.1397 11.6962C49.1284 11.703 49.092 11.728 49.0307 11.7712C48.9693 11.8121 48.8864 11.8655 48.7819 11.9313C48.8046 11.9995 48.8398 12.0529 48.8875 12.0912C48.9352 12.1279 48.9841 12.1551 49.0341 12.1733C49.0841 12.1892 49.1306 12.1983 49.1738 12.2006C49.2192 12.2029 49.2511 12.204 49.2692 12.204H52.1922V13.0526H49.2692C48.9989 13.0503 48.7557 12.9913 48.5399 12.8754C48.3263 12.7572 48.1593 12.5811 48.0389 12.3471C47.864 12.4335 47.6754 12.5198 47.4732 12.6061C47.271 12.6902 47.0597 12.7652 46.8393 12.8311C46.6189 12.897 46.3928 12.9504 46.1611 12.9913C45.9293 13.0322 45.6976 13.0526 45.4658 13.0526H44.9501V12.204H45.4658C45.6885 12.204 45.9259 12.1813 46.1781 12.1358C46.4303 12.0904 46.6791 12.0324 46.9245 11.962C47.1699 11.8893 47.4027 11.8087 47.6231 11.72C47.8458 11.6314 48.0389 11.544 48.2025 11.4576C48.1003 11.4258 47.9878 11.3917 47.8651 11.3554C47.7424 11.3168 47.6175 11.2793 47.4902 11.2429C47.363 11.2043 47.2369 11.1679 47.1119 11.1339C46.987 11.0975 46.8699 11.0657 46.7609 11.0384C46.6518 11.0112 46.5541 10.9896 46.4678 10.9737C46.3815 10.9578 46.3133 10.9498 46.2633 10.9498C46.2111 10.9498 46.1645 10.9566 46.1236 10.9703C46.085 10.9816 46.0497 11.0021 46.0179 11.0316C45.9861 11.0589 45.9566 11.0952 45.9293 11.1407C45.9021 11.1861 45.8737 11.2406 45.8441 11.3043L45.0637 11.0691C45.1068 10.9328 45.1591 10.8055 45.2204 10.6874C45.2841 10.567 45.3602 10.4625 45.4488 10.3739C45.5397 10.2852 45.6442 10.2159 45.7623 10.166C45.8805 10.1137 46.0157 10.0876 46.1679 10.0876C46.227 10.0876 46.311 10.1001 46.4201 10.1251C46.5291 10.1501 46.653 10.183 46.7916 10.2239C46.9302 10.2648 47.0778 10.3114 47.2346 10.3636C47.3937 10.4159 47.5527 10.4704 47.7117 10.5272C47.8708 10.584 48.0253 10.6397 48.1752 10.6942C48.3252 10.7487 48.4604 10.7987 48.5808 10.8442C48.7012 10.8873 48.8023 10.9237 48.8841 10.9532C48.9659 10.9828 49.0182 11.0009 49.0409 11.0078L49.1397 11.6962ZM45.4147 8.7039L46.0282 8.08363L46.6552 8.71072L46.035 9.33098L45.4147 8.7039Z" fill="white"/>
<path d="M49.7509 12.204H52.4898C52.6239 12.204 52.7318 12.1926 52.8136 12.1699C52.8976 12.1472 52.9624 12.1142 53.0078 12.0711C53.0556 12.0256 53.0874 11.9711 53.1033 11.9075C53.1192 11.8439 53.1271 11.7712 53.1271 11.6894V10.6976H53.9757V11.6723C53.9757 11.8564 54.02 11.9904 54.1087 12.0745C54.1973 12.1585 54.337 12.2017 54.5278 12.204C54.5619 12.2017 54.6028 12.1949 54.6505 12.1835C54.7005 12.1722 54.7482 12.1495 54.7937 12.1154C54.8414 12.079 54.8812 12.0279 54.913 11.962C54.947 11.8939 54.9641 11.803 54.9641 11.6894V10.6976H55.8093V11.6723C55.8093 11.8586 55.8536 11.9938 55.9422 12.0779C56.0308 12.162 56.1751 12.204 56.375 12.204C56.4295 12.204 56.4829 12.196 56.5352 12.1801C56.5897 12.162 56.6386 12.1336 56.6817 12.0949C56.7249 12.054 56.7601 12.0018 56.7874 11.9382C56.8147 11.8745 56.8306 11.7962 56.8351 11.703V10.6976H57.6837V11.7064C57.6883 11.8814 57.7417 12.0086 57.8439 12.0881C57.9461 12.1654 58.1029 12.204 58.3142 12.204H58.6482V13.0526H58.3142C58.0802 13.0526 57.8768 13.0276 57.7042 12.9776C57.5315 12.9254 57.3827 12.8413 57.2577 12.7254C57.1418 12.8322 57.0055 12.914 56.8487 12.9708C56.6942 13.0253 56.5363 13.0526 56.375 13.0526C56.1614 13.0526 55.974 13.0265 55.8127 12.9742C55.6536 12.922 55.5116 12.8379 55.3867 12.722C55.2685 12.8265 55.1356 12.9072 54.9879 12.964C54.8425 13.0208 54.6948 13.0503 54.5449 13.0526H54.521C54.3165 13.0526 54.1348 13.0253 53.9757 12.9708C53.8167 12.914 53.6781 12.8356 53.56 12.7356C53.2941 12.9469 52.9374 13.0526 52.4898 13.0526H49.7509V12.204Z" fill="white"/>
<path d="M60.4854 10.1898C60.4899 10.2057 60.499 10.2432 60.5127 10.3023C60.5286 10.3614 60.5456 10.4341 60.5638 10.5204C60.582 10.6045 60.6001 10.6988 60.6183 10.8033C60.6388 10.9078 60.6569 11.0134 60.6728 11.1202C60.691 11.2247 60.7046 11.327 60.7137 11.4269C60.7251 11.5269 60.7308 11.6144 60.7308 11.6894C60.7308 11.9234 60.6922 12.1267 60.6149 12.2994C60.5376 12.4698 60.4365 12.6107 60.3116 12.722C60.1866 12.8333 60.0458 12.9163 59.889 12.9708C59.7345 13.0253 59.5788 13.0526 59.4221 13.0526H58.5155V12.204H59.4459C59.4732 12.204 59.5118 12.2006 59.5618 12.1938C59.6141 12.1847 59.6652 12.1631 59.7152 12.129C59.7674 12.0949 59.8129 12.0438 59.8515 11.9756C59.8901 11.9052 59.9094 11.8098 59.9094 11.6894C59.9094 11.6394 59.9049 11.5792 59.8958 11.5087C59.889 11.436 59.8788 11.3588 59.8651 11.277C59.8515 11.1952 59.8356 11.1123 59.8174 11.0282C59.8015 10.9419 59.7856 10.8612 59.7697 10.7862C59.7538 10.709 59.7379 10.6397 59.722 10.5783C59.7061 10.5147 59.6936 10.4659 59.6845 10.4318L60.4854 10.1898ZM58.7075 8.81977L59.321 8.1995L59.9481 8.82659L59.3278 9.44686L58.7075 8.81977Z" fill="white"/>
<path d="M69.2333 10.6976V11.6962C69.2333 11.7757 69.2446 11.8439 69.2674 11.9007C69.2924 11.9552 69.323 12.0018 69.3594 12.0404C69.398 12.0768 69.44 12.1063 69.4855 12.129C69.5309 12.1495 69.5752 12.1654 69.6184 12.1767C69.6616 12.1881 69.6991 12.196 69.7309 12.2006C69.7649 12.2029 69.7899 12.204 69.8058 12.204H70.0171V13.0526H69.8058C69.7286 13.0526 69.6457 13.0469 69.557 13.0356C69.4707 13.0265 69.3832 13.0106 69.2946 12.9878C69.2083 12.9629 69.1242 12.9299 69.0424 12.889C68.9606 12.8481 68.8879 12.7981 68.8243 12.7391C68.5767 12.9458 68.2404 13.0503 67.8155 13.0526H63.8826C63.7145 13.0526 63.5554 13.0242 63.4055 12.9674C63.2555 12.9106 63.1226 12.8277 63.0067 12.7186C62.9613 12.6754 62.9136 12.6232 62.8636 12.5618C62.8159 12.5005 62.7727 12.4278 62.7341 12.3437C62.6955 12.2597 62.6637 12.1654 62.6387 12.0609C62.6137 11.9541 62.6012 11.8348 62.6012 11.703C62.6012 11.5894 62.6125 11.4667 62.6353 11.3349C62.658 11.2009 62.683 11.0748 62.7102 10.9566C62.7398 10.8385 62.767 10.7362 62.792 10.6499C62.817 10.5636 62.8329 10.5102 62.8397 10.4897L63.2453 10.6192L63.6475 10.7453C63.627 10.8067 63.6054 10.8805 63.5827 10.9669C63.56 11.0509 63.5384 11.1384 63.5179 11.2293C63.4975 11.3202 63.4805 11.4076 63.4668 11.4917C63.4532 11.5758 63.4464 11.6485 63.4464 11.7098C63.4464 11.8189 63.4611 11.9075 63.4907 11.9756C63.5225 12.0415 63.56 12.0927 63.6031 12.129C63.6486 12.1631 63.6974 12.1858 63.7497 12.1972C63.802 12.2085 63.8485 12.2142 63.8894 12.2142H67.7917C67.9166 12.2142 68.0234 12.2029 68.112 12.1801C68.2006 12.1551 68.2665 12.1199 68.3097 12.0745C68.362 12.0154 68.3881 11.9302 68.3881 11.8189V10.6976H69.2333ZM66.6023 10.4113L66.0297 9.83197L66.5954 9.24578L67.1816 9.83197L66.6023 10.4113ZM65.1743 10.4148L64.6017 9.83538L65.164 9.24919L65.7502 9.83538L65.1743 10.4148Z" fill="white"/>
<path d="M69.9061 13.0526V12.204H73.4619C73.6528 12.204 73.813 12.1938 73.9425 12.1733C74.072 12.1506 74.1765 12.1222 74.256 12.0881C74.3378 12.054 74.3991 12.0165 74.44 11.9756C74.4809 11.9325 74.5105 11.8893 74.5287 11.8461C74.3628 11.8689 74.2072 11.8802 74.0617 11.8802C73.9391 11.8802 73.7902 11.8689 73.6153 11.8461C73.4403 11.8211 73.2688 11.7575 73.1007 11.6553C72.9325 11.5508 72.803 11.4122 72.7121 11.2395C72.6235 11.0668 72.5792 10.8601 72.5792 10.6192C72.5792 10.4284 72.6144 10.2489 72.6849 10.0808C72.7553 9.91036 72.853 9.76267 72.978 9.63771C73.1052 9.51048 73.2552 9.4105 73.4278 9.3378C73.5778 9.27645 73.7425 9.24578 73.922 9.24578H73.9902C74.1719 9.2526 74.3321 9.28441 74.4707 9.34121C74.6116 9.39801 74.7331 9.47299 74.8354 9.56614C74.9399 9.6593 75.0262 9.76835 75.0944 9.89332C75.1648 10.016 75.2205 10.1489 75.2614 10.2921C75.3046 10.4352 75.3352 10.5852 75.3534 10.7419C75.3738 10.8964 75.3852 11.0521 75.3875 11.2088L75.3738 11.461C75.3557 11.7791 75.2921 12.0415 75.183 12.2483C75.0739 12.4528 74.9319 12.6152 74.757 12.7356C74.5843 12.8538 74.3867 12.9367 74.164 12.9844C73.9413 13.0299 73.7073 13.0526 73.4619 13.0526H69.9061ZM73.9834 10.0944C73.9606 10.0921 73.9391 10.091 73.9186 10.091C73.8595 10.091 73.7959 10.1001 73.7278 10.1182C73.6619 10.1342 73.5994 10.1648 73.5403 10.2103C73.4835 10.2557 73.4369 10.3125 73.4006 10.3807C73.3665 10.4466 73.3495 10.5238 73.3495 10.6124C73.3495 10.8101 73.454 10.9521 73.663 11.0384C73.7834 11.0907 73.9345 11.1168 74.1163 11.1168C74.2481 11.1168 74.3957 11.1032 74.5593 11.0759C74.5548 10.9782 74.5468 10.8748 74.5355 10.7658C74.5241 10.6567 74.4991 10.5545 74.4605 10.4591C74.4219 10.3636 74.3651 10.283 74.2901 10.2171C74.2151 10.1489 74.1129 10.108 73.9834 10.0944ZM73.2097 7.93027L73.8232 7.31L74.4503 7.93708L73.83 8.55735L73.2097 7.93027Z" fill="white"/>
<path d="M77.9835 13.0526C77.7336 13.0526 77.5189 13.0367 77.3394 13.0049C77.1599 12.9753 77.0088 12.931 76.8861 12.872C76.7634 12.8106 76.6646 12.7334 76.5896 12.6402C76.5169 12.5471 76.4613 12.438 76.4226 12.313C76.384 12.1881 76.3579 12.0472 76.3442 11.8904C76.3329 11.7314 76.3272 11.5565 76.3272 11.3656V8.13816H77.1758V11.3656C77.1758 11.5474 77.1815 11.6928 77.1929 11.8018C77.2065 11.9109 77.2394 11.9961 77.2917 12.0574C77.3462 12.1165 77.4269 12.1563 77.5337 12.1767C77.6427 12.1949 77.7927 12.204 77.9835 12.204V13.0526Z" fill="white"/>
<path d="M79.8795 10.1898C79.884 10.2057 79.8931 10.2432 79.9067 10.3023C79.9226 10.3614 79.9397 10.4341 79.9579 10.5204C79.976 10.6045 79.9942 10.6988 80.0124 10.8033C80.0328 10.9078 80.051 11.0134 80.0669 11.1202C80.0851 11.2247 80.0987 11.327 80.1078 11.4269C80.1192 11.5269 80.1249 11.6144 80.1249 11.6894C80.1249 11.9234 80.0862 12.1267 80.009 12.2994C79.9317 12.4698 79.8306 12.6107 79.7057 12.722C79.5807 12.8333 79.4398 12.9163 79.2831 12.9708C79.1286 13.0253 78.9729 13.0526 78.8162 13.0526H77.8471V12.204H78.84C78.8673 12.204 78.9059 12.2006 78.9559 12.1938C79.0081 12.1847 79.0593 12.1631 79.1092 12.129C79.1615 12.0949 79.2069 12.0438 79.2456 11.9756C79.2842 11.9052 79.3035 11.8098 79.3035 11.6894C79.3035 11.6394 79.299 11.5792 79.2899 11.5087C79.2831 11.436 79.2728 11.3588 79.2592 11.277C79.2456 11.1952 79.2297 11.1123 79.2115 11.0282C79.1956 10.9419 79.1797 10.8612 79.1638 10.7862C79.1479 10.709 79.132 10.6397 79.1161 10.5783C79.1002 10.5147 79.0877 10.4659 79.0786 10.4318L79.8795 10.1898ZM78.4844 14.9066L77.9119 14.3272L78.4776 13.741L79.0638 14.3272L78.4844 14.9066ZM77.0565 14.91L76.4839 14.3306L77.0462 13.7444L77.6324 14.3306L77.0565 14.91Z" fill="white"/>
<path d="M82.4425 12.8447C82.4289 13.1582 82.3709 13.44 82.2687 13.6899C82.1664 13.9421 82.0256 14.1557 81.8461 14.3306C81.6666 14.5078 81.4496 14.6442 81.1951 14.7396C80.9407 14.835 80.6533 14.8827 80.3329 14.8827H79.9103V14.0341H80.3329C80.551 14.0341 80.7396 14.0114 80.8986 13.966C81.0577 13.9205 81.1883 13.8478 81.2906 13.7478C81.3928 13.6479 81.4689 13.5172 81.5189 13.3559C81.5689 13.1969 81.5939 13.0026 81.5939 12.7731V10.6976H82.4425V12.8447Z" fill="white"/>
<path d="M84.4259 13.056C84.3395 13.056 84.2543 13.0515 84.1703 13.0424C84.0862 13.0333 84.001 13.0208 83.9146 13.0049C83.8283 12.989 83.7397 12.9697 83.6488 12.9469C83.5579 12.922 83.4625 12.8947 83.3625 12.8652L82.957 12.7425L83.2024 11.9245C83.4 11.9927 83.6045 12.0529 83.8158 12.1052C84.0294 12.1574 84.2305 12.1915 84.419 12.2074C84.4804 12.2119 84.5395 12.2142 84.5963 12.2142C84.7099 12.2142 84.8235 12.2017 84.9371 12.1767C85.0529 12.1517 85.1347 12.0893 85.1824 11.9893C85.1915 11.9711 85.1961 11.9495 85.1961 11.9245C85.1961 11.9086 85.1915 11.8836 85.1824 11.8495C85.1734 11.8155 85.1507 11.7723 85.1143 11.72L83.8431 9.86605L84.5588 9.40255L84.7905 9.7604C84.7905 9.76267 84.7939 9.76949 84.8007 9.78085C84.8098 9.79221 84.8257 9.81607 84.8485 9.85242C84.8735 9.88877 84.9075 9.94103 84.9507 10.0092C84.9962 10.0751 85.0552 10.1626 85.1279 10.2716C85.2006 10.3807 85.2892 10.5159 85.3938 10.6772C85.5005 10.8362 85.6278 11.0271 85.7755 11.2497C85.8913 11.4247 85.9629 11.6053 85.9902 11.7916C85.997 11.8393 86.0004 11.8859 86.0004 11.9313C86.0004 12.0677 85.9731 12.1983 85.9186 12.3233C85.88 12.4142 85.8277 12.4982 85.7618 12.5755C85.6982 12.6504 85.6232 12.7175 85.5369 12.7765C85.3756 12.8879 85.1813 12.964 84.9541 13.0049C84.7633 13.039 84.5872 13.056 84.4259 13.056Z" fill="white"/>
<path d="M52.27 30.32C52.6656 30.32 53.0522 30.4373 53.3811 30.6571C53.71 30.8768 53.9664 31.1892 54.1178 31.5546C54.2691 31.9201 54.3087 32.3222 54.2316 32.7102C54.1544 33.0982 53.9639 33.4545 53.6842 33.7342C53.4045 34.0139 53.0481 34.2044 52.6602 34.2816C52.2722 34.3588 51.8701 34.3191 51.5046 34.1678C51.1392 34.0164 50.8268 33.7601 50.6071 33.4312C50.3873 33.1023 50.27 32.7156 50.27 32.32C50.27 31.7896 50.4807 31.2809 50.8558 30.9058C51.2309 30.5307 51.7396 30.32 52.27 30.32ZM57.49 30.32C58.0204 30.32 58.5291 30.5307 58.9042 30.9058C59.2793 31.2809 59.49 31.7896 59.49 32.32C59.49 32.7156 59.3727 33.1023 59.1529 33.4312C58.9332 33.7601 58.6208 34.0164 58.2554 34.1678C57.8899 34.3191 57.4878 34.3588 57.0998 34.2816C56.7118 34.2044 56.3555 34.0139 56.0758 33.7342C55.7961 33.4545 55.6056 33.0982 55.5284 32.7102C55.4513 32.3222 55.4909 31.9201 55.6422 31.5546C55.7936 31.1892 56.05 30.8768 56.3789 30.6571C56.7078 30.4373 57.0944 30.32 57.49 30.32ZM61.49 30.32C61.8856 30.32 62.2722 30.4373 62.6011 30.6571C62.93 30.8768 63.1864 31.1892 63.3378 31.5546C63.4891 31.9201 63.5287 32.3222 63.4516 32.7102C63.3744 33.0982 63.1839 33.4545 62.9042 33.7342C62.6245 34.0139 62.2681 34.2044 61.8802 34.2816C61.4922 34.3588 61.0901 34.3191 60.7246 34.1678C60.3592 34.0164 60.0468 33.7601 59.8271 33.4312C59.6073 33.1023 59.49 32.7156 59.49 32.32C59.49 31.7896 59.7007 31.2809 60.0758 30.9058C60.4509 30.5307 60.9596 30.32 61.49 30.32ZM39.06 30.32C39.5904 30.32 40.0991 30.5307 40.4742 30.9058C40.8493 31.2809 41.06 31.7896 41.06 32.32C41.06 32.7156 40.9427 33.1023 40.7229 33.4312C40.5032 33.7601 40.1908 34.0164 39.8254 34.1678C39.4599 34.3191 39.0578 34.3588 38.6698 34.2816C38.2818 34.2044 37.9255 34.0139 37.6458 33.7342C37.3661 33.4545 37.1756 33.0982 37.0984 32.7102C37.0213 32.3222 37.0609 31.9201 37.2122 31.5546C37.3636 31.1892 37.62 30.8768 37.9489 30.6571C38.2778 30.4373 38.6644 30.32 39.06 30.32ZM35.06 30.32C35.5904 30.32 36.0991 30.5307 36.4742 30.9058C36.8493 31.2809 37.06 31.7896 37.06 32.32C37.06 32.7156 36.9427 33.1023 36.7229 33.4312C36.5032 33.7601 36.1908 34.0164 35.8254 34.1678C35.4599 34.3191 35.0578 34.3588 34.6698 34.2816C34.2818 34.2044 33.9255 34.0139 33.6458 33.7342C33.3661 33.4545 33.1756 33.0982 33.0984 32.7102C33.0213 32.3222 33.0609 31.9201 33.2122 31.5546C33.3636 31.1892 33.62 30.8768 33.9489 30.6571C34.2778 30.4373 34.6644 30.32 35.06 30.32ZM43.06 30.32C43.4556 30.32 43.8422 30.4373 44.1711 30.6571C44.5 30.8768 44.7564 31.1892 44.9078 31.5546C45.0591 31.9201 45.0987 32.3222 45.0216 32.7102C44.9444 33.0982 44.7539 33.4545 44.4742 33.7342C44.1945 34.0139 43.8381 34.2044 43.4502 34.2816C43.0622 34.3588 42.6601 34.3191 42.2946 34.1678C41.9292 34.0164 41.6168 33.7601 41.3971 33.4312C41.1773 33.1023 41.06 32.7156 41.06 32.32C41.06 31.7913 41.2693 31.2841 41.6422 30.9093C42.0152 30.5345 42.5213 30.3227 43.05 30.32H43.06ZM53.8 18.18C53.9229 18.18 54.041 18.2281 54.1288 18.3141C54.2167 18.4001 54.2674 18.5171 54.27 18.64V27.14C54.2578 27.6465 54.0539 28.1295 53.6994 28.4915C53.3448 28.8535 52.8661 29.0674 52.36 29.09H50.73C50.6088 29.0875 50.4933 29.0382 50.4075 28.9525C50.3218 28.8667 50.2725 28.7512 50.27 28.63V18.63C50.2725 18.5088 50.3218 18.3933 50.4075 18.3076C50.4933 18.2218 50.6088 18.1726 50.73 18.17L53.8 18.18ZM59.03 18.18C59.1512 18.1826 59.2667 18.2319 59.3524 18.3176C59.4382 18.4033 59.4874 18.5188 59.49 18.64V24.64C59.4926 24.7629 59.5433 24.8799 59.6311 24.9659C59.719 25.0519 59.8371 25.1 59.96 25.1H85.15C85.2112 25.0987 85.2721 25.1096 85.3291 25.1321C85.3861 25.1546 85.438 25.1883 85.4817 25.2312C85.5255 25.274 85.5603 25.3252 85.584 25.3816C85.6078 25.4381 85.62 25.4988 85.62 25.56V27.14C85.608 27.6449 85.4054 28.1265 85.053 28.4882C84.7006 28.8499 84.2244 29.0649 83.72 29.09H55.8C55.7597 29.09 55.7199 29.082 55.6828 29.0663C55.6458 29.0506 55.6122 29.0276 55.5842 28.9986C55.5563 28.9697 55.5344 28.9355 55.5199 28.8979C55.5054 28.8603 55.4986 28.8202 55.5 28.78V18.66C55.5 18.538 55.5485 18.421 55.6347 18.3347C55.721 18.2485 55.838 18.2 55.96 18.2L59.03 18.18ZM25.4 18.18C26.8404 18.1888 28.2369 18.6772 29.3687 19.5682C30.5005 20.4592 31.3032 21.7019 31.65 23.1C31.97 24.37 31.95 25.1 33.03 25.1H44.7C44.7788 25.0975 44.8536 25.0651 44.9094 25.0094C44.9651 24.9536 44.9975 24.8788 45 24.8C45 24.5 45 24.31 45 24.23V24.17C45 23.6396 44.7893 23.1309 44.4142 22.7558C44.0391 22.3807 43.5304 22.17 43 22.17H37.81C37.2332 22.1883 36.6593 22.0816 36.1277 21.8572C35.596 21.6328 35.1192 21.296 34.73 20.87C34.3839 20.2256 34.1889 19.5109 34.16 18.78V18.7C34.1517 18.5796 34.1911 18.4607 34.2696 18.369C34.3482 18.2773 34.4597 18.2202 34.58 18.21H42.89C44.3696 18.0903 45.8463 18.4744 47.08 19.3C47.7206 19.8464 48.2322 20.528 48.578 21.2957C48.9238 22.0634 49.0953 22.8982 49.08 23.74C49.08 24.69 49.08 26.28 49.08 28.52V28.64C49.0774 28.7612 49.0282 28.8767 48.9424 28.9625C48.8567 29.0482 48.7412 29.0975 48.62 29.1H31.84C30.7613 29.0738 29.7365 28.6234 28.9877 27.8465C28.2389 27.0697 27.8265 26.0289 27.84 24.95V24.34C27.825 24.0355 27.7487 23.737 27.6159 23.4626C27.483 23.1881 27.2962 22.9433 27.0666 22.7426C26.837 22.5419 26.5693 22.3896 26.2795 22.2946C25.9898 22.1997 25.6838 22.1641 25.38 22.19C25.0754 22.1697 24.7699 22.2103 24.4811 22.3093C24.1924 22.4083 23.9262 22.5638 23.6982 22.7667C23.4702 22.9696 23.2848 23.2158 23.1529 23.4911C23.021 23.7664 22.9452 24.0652 22.93 24.37V24.95C22.93 28.48 21.08 29.1 19.39 29.1C18.95 29.1 18.93 28.96 18.93 28.55V24.55C18.9588 22.8523 19.6529 21.2337 20.8628 20.0424C22.0728 18.8511 23.702 18.1824 25.4 18.18Z" fill="white"/>
<path d="M115.378 14.7866C117.64 16.4329 119.169 18.8984 119.638 21.6566C119.924 23.166 119.873 24.7196 119.491 26.2075C119.11 27.6954 118.405 29.0811 117.428 30.2666L117.358 30.3566C117.266 30.4709 117.133 30.5443 116.987 30.5612C116.841 30.578 116.694 30.5368 116.578 30.4466C116.536 30.4079 116.5 30.3643 116.468 30.3166C115.505 29.0061 114.74 27.5605 114.198 26.0266C113.992 25.0667 113.885 24.0883 113.878 23.1066C113.825 22.2867 113.563 21.4942 113.116 20.8045C112.67 20.1147 112.055 19.5509 111.328 19.1666C110.722 18.8391 110.053 18.6425 109.365 18.5896C108.678 18.5367 107.987 18.6286 107.337 18.8594C106.687 19.0901 106.093 19.4547 105.593 19.9294C105.093 20.4041 104.698 20.9785 104.433 21.6153C104.169 22.2522 104.041 22.9375 104.058 23.6268C104.075 24.3162 104.237 24.9943 104.532 25.6173C104.828 26.2404 105.251 26.7945 105.774 27.244C106.297 27.6934 106.908 28.0282 107.568 28.2266C108.805 28.5683 110.124 28.4364 111.268 27.8566C111.393 27.8001 111.534 27.7913 111.665 27.8318C111.796 27.8723 111.907 27.9594 111.978 28.0766L114.388 32.2366C114.461 32.3626 114.481 32.5123 114.443 32.6529C114.406 32.7934 114.314 32.9134 114.188 32.9866C111.738 34.3005 108.887 34.6569 106.188 33.9866C103.514 33.2434 101.215 31.5233 99.7484 29.1666C98.4146 26.9639 97.9077 24.3586 98.3184 21.8166C99.4484 14.0266 108.978 9.94657 115.378 14.7866ZM116.948 5.78657H117.068C117.14 5.79158 117.21 5.81094 117.275 5.8435C117.339 5.87606 117.396 5.92116 117.443 5.97614C117.489 6.03113 117.524 6.09489 117.546 6.16366C117.568 6.23243 117.575 6.30482 117.568 6.37657C117.579 6.43277 117.579 6.49038 117.568 6.54657C116.982 8.05405 115.931 9.33589 114.568 10.2066C113.014 11.0919 111.212 11.4432 109.438 11.2066H109.318C109.246 11.2016 109.174 11.182 109.109 11.1488C109.044 11.1156 108.987 11.0696 108.94 11.0135C108.893 10.9574 108.858 10.8924 108.838 10.8225C108.817 10.7526 108.81 10.6791 108.818 10.6066C108.814 10.5567 108.814 10.5065 108.818 10.4566C109.379 8.95253 110.406 7.66681 111.748 6.78657C113.319 5.87555 115.149 5.51318 116.948 5.75657V5.78657Z" fill="white"/>
</svg>