<svg width="24" height="24" fill="none" xmlns="http://www.w3.org/2000/svg" class="MuiSvgIcon-root MuiSvgIcon-fontSizeMedium mui-10g48rb" focusable="false" aria-hidden="true" viewBox="0 0 24 24"><g fill="currentColor"><path d="M21.866 14.645c-.226.327-.61.394-.92.193-.319-.21-.369-.611-.126-.971.845-1.23 1.348-2.846 1.348-4.537 0-1.683-.494-3.307-1.348-4.537-.251-.352-.193-.753.125-.963.31-.209.695-.134.921.193 1.03 1.398 1.616 3.34 1.616 5.307 0 1.975-.595 3.9-1.616 5.315zM18.836 12.57a.648.648 0 01-.904.183c-.343-.234-.393-.644-.134-1.012.452-.645.712-1.499.712-2.411 0-.904-.26-1.766-.712-2.403-.268-.368-.21-.778.134-1.012.285-.201.687-.134.904.184.62.828.988 2.009.988 3.23 0 1.231-.368 2.42-.988 3.24zM16.069 9.439c0 1.975-1.465 3.507-3.173 3.507-1.716 0-3.18-1.532-3.18-3.49 0-1.934 1.473-3.424 3.18-3.424 1.7 0 3.173 1.456 3.173 3.407zM17.852 20.287H7.924c-1.264 0-1.707-.368-1.707-1.072 0-1.384 1.18-3.121 3.217-4.098.969-.464 2.132-.757 3.454-.757 4.11 0 6.671 2.813 6.671 4.855 0 .704-.443 1.072-1.707 1.072zM7.193 15.033a7.94 7.94 0 01.702-.52 6.67 6.67 0 00-1.56-.178c-3.565 0-5.817 2.629-5.817 4.805 0 .737.393 1.147 1.423 1.147h3.23a2.387 2.387 0 01-.24-1.072c0-1.52.917-3.066 2.262-4.182zM5.478 13.13c1.49 0 2.763-1.34 2.763-3.064 0-1.699-1.281-2.963-2.763-2.963-1.473 0-2.77 1.298-2.77 2.98 0 1.708 1.289 3.047 2.77 3.047z"></path></g></svg>