<svg width="24" height="24" fill="none" xmlns="http://www.w3.org/2000/svg" class="MuiSvgIcon-root MuiSvgIcon-fontSizeMedium mui-10g48rb" focusable="false" aria-hidden="true" viewBox="0 0 24 24"><path d="M6.999 4.366h10.01c-.05-.678-.443-1.038-1.18-1.038H8.18c-.737 0-1.13.36-1.18 1.038zM5.375 6.593h13.259c-.117-.729-.469-1.139-1.28-1.139H6.655c-.812 0-1.164.41-1.281 1.139zm.912 14.079h11.426c1.615 0 2.444-.829 2.444-2.42v-7.968c0-1.59-.829-2.41-2.444-2.41H6.287c-1.624 0-2.444.811-2.444 2.41v7.969c0 1.599.82 2.419 2.444 2.419zm2.77-3.18V14.26c0-.578.235-.862.704-.896v-.954c0-1.507.912-2.52 2.243-2.52 1.34 0 2.244 1.013 2.244 2.52v.954c.468.034.703.318.703.896v3.231c0 .611-.268.896-.837.896h-4.21c-.57 0-.846-.285-.846-.896zm1.6-4.144h2.695v-1.03c0-.937-.536-1.565-1.348-1.565-.803 0-1.347.628-1.347 1.565v1.03z" fill="currentColor"></path></svg>