<svg id="Layer_1" data-name="Layer 1" xmlns="http://www.w3.org/2000/svg" width="200" height="100" viewBox="0 0 200 100">
    <defs>
        <style>
            .cls-1 {
                fill: #9d71d2;
            }

            .cls-2 {
                fill: #303030;
            }
        </style>
    </defs>
    <title>Cash</title>
    <g id="Cash">
        <g id="business-and-finance">
            <g id="Group_3499" data-name="Group 3499">
                <path id="Path_9998" data-name="Path 9998" class="cls-1"
                    d="M114.32,31.59l-15-4.09-3.68,3.07a10.46,10.46,0,0,1-1.76-5.84V21.37a3.41,3.41,0,1,1,6.81,0v1.36a.69.69,0,0,0,1.37,0h0V21.37a3.41,3.41,0,0,1,6.81,0h0v1.36a.69.69,0,0,0,1.37,0V21.37a3.41,3.41,0,0,1,6.81,0h0v3.36a10.46,10.46,0,0,1-1.76,5.84Z" />
                <path id="Path_9999" data-name="Path 9999" class="cls-2"
                    d="M92.82,52,90.1,50.68H85.69V30.23H76.14v25.9h9.54V53.4h3.77l2.73,1.37h1.68V52ZM83,53.4H78.87V33H83Z" />
                <path id="Path_10000" data-name="Path 10000" class="cls-1"
                    d="M106.14,82c-.24,0-.49,0-.73,0a18,18,0,0,1-17-17.39,17.58,17.58,0,0,1,5-12.65A15.24,15.24,0,0,0,98,41.43l6.82-4.38,2.72,2.73V53.4h9.55l1.59-1.64A17.72,17.72,0,0,1,106.15,82Z" />
                <path id="Path_10001" data-name="Path 10001" class="cls-2"
                    d="M113,61.58v-.67a4.78,4.78,0,0,0-4.78-4.78h-.68V53.4h-2.72v2.73h-.68a4.78,4.78,0,0,0,0,9.54h4.09a2,2,0,0,1,0,4.09h-4.1a2,2,0,0,1-2-2V67H99.32v.68a4.77,4.77,0,0,0,4.77,4.77h.69v2.73h2.72V72.49h.68a4.78,4.78,0,1,0,.46-9.54,3.53,3.53,0,0,0-.46,0h-4.09a2,2,0,0,1,0-4.09h4.09a2.05,2.05,0,0,1,2,2v.67Z" />
                <path id="Path_10002" data-name="Path 10002" class="cls-2"
                    d="M118.71,37.05a4.09,4.09,0,0,0-.27-5.76,4,4,0,0,0-2.76-1.06H110.6L109.66,29,99,26l-8.36,7H84.32v2.73h7.31l8-6.67,8.43,2.41L110.94,35a2.24,2.24,0,0,1-.35,3.13l-.06,0a2.25,2.25,0,0,1-2.91-.21l-2.75-2.76-7.78,6.22,1.71,2.13,5.86-4.69,1,1a4.63,4.63,0,0,0,.48.4,3.53,3.53,0,0,0,1,2.2,4,4,0,0,0,0,5.46,4,4,0,0,0-1.06,2.72,4.09,4.09,0,0,0,4.09,4.09h5.45a4.07,4.07,0,0,0,4.09-4.05A4.12,4.12,0,0,0,118.7,48a4,4,0,0,0,0-5.45,4.05,4.05,0,0,0,0-5.46Zm-3,15h-5.45a1.37,1.37,0,1,1,0-2.73h5.45a1.37,1.37,0,0,1,0,2.73Zm0-5.45h-5.45a1.37,1.37,0,1,1,0-2.73h5.45a1.37,1.37,0,0,1,0,2.73Zm0-5.46h-5.05a4.78,4.78,0,0,0,3.07-2.72h2a1.36,1.36,0,0,1,0,2.72Zm0-5.45h-1.6a5,5,0,0,0-1-2.38l-.28-.35h2.89a1.37,1.37,0,0,1,0,2.73Z" />
            </g>
        </g>
    </g>
</svg>