<svg xmlns="http://www.w3.org/2000/svg" id="quote" width="56" height="44.8" viewBox="0 0 56 44.8"
    class="quote-sc-ug2ztv-0 hsgXXv absolute">
    <g id="Group_6445">
        <path id="Path_9240"
            d="M19.384 56.909h-7.538a3.209 3.209 0 0 1-2.289-.891 2.868 2.868 0 0 1-.942-2.164v-1.018a7.639 7.639 0 0 1 2.524-5.759 8.55 8.55 0 0 1 6.092-2.386h2.154a2.131 2.131 0 0 0 1.514-.6 1.906 1.906 0 0 0 .639-1.432v-4.077a1.907 1.907 0 0 0-.639-1.432 2.132 2.132 0 0 0-1.514-.6h-2.154a17.629 17.629 0 0 0-6.68 1.289 17.458 17.458 0 0 0-5.5 3.485 16.381 16.381 0 0 0-3.685 5.2A15.126 15.126 0 0 0 0 52.836v22.4a5.734 5.734 0 0 0 1.884 4.328 6.42 6.42 0 0 0 4.577 1.781h12.924a6.419 6.419 0 0 0 4.577-1.781 5.735 5.735 0 0 0 1.884-4.328V63.018a5.733 5.733 0 0 0-1.885-4.328 6.419 6.419 0 0 0-4.577-1.781z"
            fill="#eef0f3" transform="translate(0 -36.545)"></path>
        <path id="Path_9241"
            d="M279.782 58.69a6.418 6.418 0 0 0-4.577-1.782h-7.538a3.207 3.207 0 0 1-2.288-.891 2.865 2.865 0 0 1-.942-2.164v-1.017a7.641 7.641 0 0 1 2.524-5.759 8.547 8.547 0 0 1 6.092-2.386h2.153a2.131 2.131 0 0 0 1.515-.6 1.907 1.907 0 0 0 .64-1.432v-4.077a1.908 1.908 0 0 0-.64-1.432 2.132 2.132 0 0 0-1.515-.6h-2.153a17.9 17.9 0 0 0-12.183 4.773 16.371 16.371 0 0 0-3.685 5.2 15.127 15.127 0 0 0-1.364 6.316v22.4a5.735 5.735 0 0 0 1.885 4.328 6.416 6.416 0 0 0 4.577 1.781H275.2a6.417 6.417 0 0 0 4.577-1.781 5.731 5.731 0 0 0 1.884-4.328V63.018a5.733 5.733 0 0 0-1.879-4.328z"
            fill="#eef0f3" transform="translate(-225.665 -36.545)"></path>
    </g>
</svg>