<svg id="Layer_1" data-name="Layer 1" xmlns="http://www.w3.org/2000/svg" width="200" height="100" viewBox="0 0 200 100">
    <defs>
        <style>
            .cls-1 {
                fill: #9d71d2;
            }

            .cls-2 {
                fill: #303030;
            }
        </style>
    </defs>
    <title>Online</title>
    <g id="Onlin">
        <g id="Online">
            <g id="Group_3859" data-name="Group 3859">
                <path id="Path_10052" data-name="Path 10052" class="cls-1"
                    d="M102,31.9A16.08,16.08,0,0,0,86.73,43,12,12,0,0,1,92,60.56,16.09,16.09,0,1,0,102,31.9Z" />
            </g>
            <g id="Group_3860" data-name="Group 3860">
                <path id="Path_10053" data-name="Path 10053" class="cls-2"
                    d="M80.89,61.06h2v-2a3,3,0,0,0,0-6h-2a1,1,0,0,1,0-2h3v1h2V49h-3V47h-2v2a3,3,0,0,0,0,6h2a1,1,0,0,1,0,2h-3V56h-2v3h3Z" />
                <path id="Path_10054" data-name="Path 10054" class="cls-2"
                    d="M123,46.07l.09.91h8l-.07-1.08a29.27,29.27,0,0,0-27-27L103,18.83v8.05l.92.08A21.06,21.06,0,0,1,123,46.07ZM105,21a27.27,27.27,0,0,1,24,24h-4.06A23.07,23.07,0,0,0,105,25.06Z" />
                <path id="Path_10055" data-name="Path 10055" class="cls-2"
                    d="M123,49.91A21.06,21.06,0,0,1,103.94,69l-.92.09v8l1.08-.07a29.27,29.27,0,0,0,27-27l.07-1.08h-8ZM129,51a27.27,27.27,0,0,1-24,24v-4A23.09,23.09,0,0,0,124.94,51Z" />
                <path id="Path_10056" data-name="Path 10056" class="cls-2"
                    d="M92.22,62a16.84,16.84,0,0,0,9.79,3.1A17.1,17.1,0,1,0,86.14,41.67a12.84,12.84,0,0,0-4-.71,21.23,21.23,0,0,1,18-14l.92-.08v-8l-1.08.07A29.1,29.1,0,0,0,73.09,44.39a13,13,0,0,0-.92,18.3l.59.6A3,3,0,0,0,71,67.16a2.85,2.85,0,0,0,.58.94,3,3,0,0,0,.2,4.25,3.05,3.05,0,0,0,2,.78h1v1a7,7,0,1,0,14.08,0v-.08a28.76,28.76,0,0,0,11,3l1.09.08V69.1L100.1,69A20.78,20.78,0,0,1,92.83,67a2.82,2.82,0,0,0,.14-.86,3,3,0,0,0-1.92-2.8A13.29,13.29,0,0,0,92.23,62Zm2.25-4.43a16.28,16.28,0,0,0,2.43,4.63,14.81,14.81,0,0,1-3.56-1.88,12.94,12.94,0,0,0,1.13-2.75ZM102,32.9c2.25,0,4.28,2.4,5.58,6H96.44C97.74,35.3,99.77,32.9,102,32.9Zm6.2,8.05a28.51,28.51,0,0,1,.82,6H95a28.51,28.51,0,0,1,.82-6ZM117,47h-6a30.62,30.62,0,0,0-.76-6h5.06a14.82,14.82,0,0,1,1.7,6ZM102,63.07c-2.25,0-4.28-2.4-5.58-6h11.15c-1.29,3.63-3.32,6-5.57,6Zm-6.2-8A28.61,28.61,0,0,1,95,49h14a28.61,28.61,0,0,1-.82,6ZM111,49h6a15,15,0,0,1-1.71,6h-5a30.8,30.8,0,0,0,.75-6Zm-3.9,13.16A16.79,16.79,0,0,0,109.71,57H114a15.17,15.17,0,0,1-6.9,5.13Zm6.93-23.21h-4.32a16.79,16.79,0,0,0-2.58-5.12A15.13,15.13,0,0,1,114.06,38.94ZM96.9,33.8a16.59,16.59,0,0,0-2.59,5.14H90A15,15,0,0,1,96.9,33.8ZM88.68,41h5.06A30.44,30.44,0,0,0,93,47.12a13.25,13.25,0,0,0-5-4.66A13.72,13.72,0,0,1,88.68,41ZM99,21v4A23.21,23.21,0,0,0,80,41.11a13,13,0,0,0-4.56,1.59A27.1,27.1,0,0,1,99,21ZM70.84,54a11.06,11.06,0,1,1,17.34,9H75.62A11,11,0,0,1,70.84,54Zm19.1,13.07H73.85a1,1,0,0,1,0-2H89.94a1,1,0,0,1,0,2Zm-17.09,3a1,1,0,0,1,1-1H89.94a1,1,0,1,1,0,2H73.85A1,1,0,0,1,72.85,70.11Zm9.05,9a5,5,0,0,1-5-5v-1H86.93v1A5,5,0,0,1,81.9,79.16ZM99,75a26.93,26.93,0,0,1-7.84-2.1A3,3,0,0,0,93,70.11a3.24,3.24,0,0,0-.16-.93A22.92,22.92,0,0,0,99,70.92Z" />
            </g>
        </g>
    </g>
</svg>